<svg width="304" height="255" viewBox="0 0 304 255" fill="none" xmlns="http://www.w3.org/2000/svg">
<path d="M181.924 64.1361C181.924 64.1361 179.356 62.5951 176.96 65.3341C176.96 65.3341 172.68 59.2531 154.535 64.5191C154.535 64.5191 156.931 69.1001 158.643 69.1001C160.355 69.1001 155.391 76.9751 150.769 76.6321C150.769 76.6321 142.894 88.1021 148.886 99.2291C154.791 110.196 159.033 113.679 164.891 106.566C165.07 106.345 165.271 106.142 165.489 105.96C167.174 104.571 174.631 98.7951 177.274 103.102C177.837 104.058 177.998 105.199 177.722 106.274C176.516 111.327 170.874 129.937 154.535 122.51C154.535 122.51 135.493 115.369 139.984 98.4531C140.464 96.7321 141.161 95.0801 142.057 93.5341C142.921 91.9561 143.453 90.2171 143.622 88.4251C143.79 86.6341 143.591 84.8271 143.036 83.1151C142.347 80.6741 140.795 78.5681 138.667 77.1881C136.604 75.9011 133.885 75.3261 131.826 78.9241C130.973 80.4201 130.524 82.1131 130.521 83.8351C130.518 85.4121 130.811 87.3451 132.11 88.2731L130.521 91.3541C129.658 89.5971 128.553 87.9681 127.24 86.5161C125.04 84.2881 123.627 81.4041 123.215 78.3001C122.633 73.3771 123.334 66.0261 129.2 57.4601C129.2 57.4601 137.074 41.7111 151.796 42.0531C166.518 42.3961 179.185 46.3331 181.924 64.1361Z" fill="#038B5B"/>
<path d="M157.274 84.678C159.831 84.093 162.458 83.877 165.077 84.035C166.396 84.101 167.704 84.299 168.983 84.628C170.289 84.908 171.502 85.514 172.509 86.39C171.346 85.85 170.104 85.5 168.83 85.354C167.572 85.173 166.302 85.041 165.021 84.984C162.461 84.825 159.888 84.813 157.274 84.678Z" fill="#038B5B"/>
<path d="M181.924 84.4341C180.988 84.7191 180.121 85.1961 179.38 85.8361C179.029 86.1251 178.743 86.4861 178.541 86.8941C178.338 87.3011 178.224 87.7471 178.206 88.2021C178.275 89.1351 178.519 90.0471 178.927 90.8901L180.046 93.6421C180.881 95.5041 181.367 97.5041 181.478 99.5411C181.476 100.078 181.378 100.61 181.187 101.112C180.982 101.62 180.647 102.066 180.216 102.403C179.339 102.955 178.305 103.201 177.274 103.102C178.241 103.02 179.161 102.652 179.917 102.045C180.228 101.713 180.462 101.318 180.603 100.887C180.745 100.455 180.79 99.9981 180.736 99.5471C180.662 98.5941 180.468 97.6541 180.16 96.7491C179.872 95.8231 179.528 94.9041 179.162 93.9891C178.81 93.0681 178.429 92.1511 178.087 91.2071C177.923 90.7311 177.757 90.2561 177.628 89.7531C177.468 89.2341 177.414 88.6871 177.469 88.1471C177.526 87.6091 177.701 87.0901 177.982 86.6281C178.263 86.1661 178.642 85.7711 179.093 85.4721C179.94 84.9061 180.911 84.5501 181.924 84.4341Z" fill="#038B5B"/>
<path d="M181.924 64.136C182.245 66.055 182.483 67.984 182.639 69.923C182.818 71.86 182.928 73.802 182.97 75.75C183 77.697 182.971 79.649 182.819 81.601C182.73 83.591 182.285 85.55 181.506 87.383C181.495 87.406 181.481 87.427 181.463 87.446C180.863 88.093 180.299 88.773 179.774 89.483C179.514 89.839 179.282 90.215 179.082 90.607C178.859 90.99 178.769 91.435 178.828 91.874C178.691 91.433 178.716 90.957 178.898 90.532C179.056 90.104 179.247 89.689 179.471 89.291C179.918 88.498 180.435 87.747 181.015 87.046L180.972 87.108C181.304 86.233 181.525 85.319 181.63 84.388C181.778 83.449 181.838 82.491 181.909 81.535C182.022 79.618 182.042 77.688 182.053 75.758C182.053 71.895 181.968 68.024 181.924 64.136Z" fill="#038B5B"/>
<path d="M171.653 97.688C171.473 98.06 171.327 98.447 171.217 98.846C171.106 99.214 171.081 99.603 171.146 99.982C171.199 100.358 171.363 100.709 171.617 100.99C171.886 101.301 172.185 101.585 172.509 101.838C172.302 101.777 172.098 101.704 171.899 101.619C171.705 101.513 171.522 101.387 171.353 101.244C171 100.938 170.762 100.521 170.677 100.061C170.617 99.606 170.685 99.143 170.874 98.724C171.05 98.323 171.317 97.969 171.653 97.688Z" fill="#038B5B"/>
<path d="M132.11 88.2729C132.702 89.0169 133.175 89.848 133.511 90.738C133.691 91.192 133.821 91.664 133.899 92.146C133.941 92.399 133.958 92.6549 133.949 92.9109L133.944 93.108L133.956 93.215C133.951 93.285 133.967 93.354 134 93.416C134.147 93.729 134.406 93.975 134.726 94.106C135.106 94.3 135.507 94.452 135.92 94.558C136.8 94.795 137.704 94.927 138.615 94.949C137.715 95.302 136.741 95.4179 135.784 95.2879C135.284 95.2369 134.795 95.112 134.333 94.916C134.061 94.81 133.812 94.652 133.602 94.45C133.391 94.248 133.223 94.006 133.106 93.739C133.044 93.588 133.014 93.427 133.018 93.264L133.014 93.024L133.021 92.8739C133.032 92.6669 133.027 92.459 133.008 92.253C132.97 91.814 132.901 91.379 132.803 90.95C132.608 90.07 132.353 89.1859 132.11 88.2729Z" fill="#038B5B"/>
<path d="M130.521 91.354C130.139 92.739 129.601 94.076 128.916 95.338C128.246 96.619 127.436 97.823 126.503 98.927C125.569 100.052 124.461 101.021 123.221 101.796C121.978 102.566 120.556 102.999 119.094 103.051C120.432 102.649 121.689 102.016 122.807 101.18C123.902 100.338 124.899 99.375 125.779 98.311C126.683 97.248 127.518 96.128 128.281 94.96C129.048 93.785 129.81 92.595 130.521 91.354Z" fill="#038B5B"/>
<path d="M143.065 131.411C144.147 130.937 145.17 130.338 146.113 129.628C147.049 128.929 147.937 128.168 148.771 127.349C149.631 126.556 150.402 125.668 151.202 124.799L152.368 123.453C152.747 122.994 153.126 122.531 153.544 122.088C153.305 122.643 153.028 123.18 152.752 123.719C152.439 124.234 152.131 124.758 151.787 125.256C151.092 126.256 150.303 127.186 149.43 128.034C148.553 128.889 147.573 129.633 146.515 130.248C145.465 130.886 144.287 131.283 143.065 131.411Z" fill="#038B5B"/>
<path d="M125.94 98.6179C125.088 97.3559 124.034 96.2419 122.821 95.3219C122.568 95.0989 122.262 94.9449 121.933 94.8749C121.603 94.8049 121.261 94.8219 120.939 94.9229C120.372 95.3089 119.964 95.8879 119.793 96.5529C119.559 97.2619 119.391 97.9909 119.29 98.7309C119.239 99.0979 119.194 99.4809 119.161 99.8349C119.162 100.172 119.192 100.568 119.226 100.936C119.373 102.446 119.653 103.939 120.062 105.4C120.816 108.372 121.986 111.222 123.539 113.865C125.112 116.508 126.993 118.954 129.144 121.152C130.223 122.243 131.344 123.293 132.481 124.317C133.663 125.292 134.792 126.339 136.022 127.233C136.615 127.713 137.269 128.102 137.889 128.54C138.545 128.917 139.174 129.346 139.858 129.666C141.178 130.383 142.582 130.934 144.038 131.304C146.946 132.076 150.036 131.751 152.72 130.393C155.418 128.953 157.684 126.821 159.286 124.216C159.291 124.205 159.301 124.197 159.313 124.193C159.325 124.189 159.338 124.19 159.35 124.196C159.36 124.202 159.368 124.212 159.372 124.224C159.375 124.236 159.375 124.248 159.37 124.26C157.977 127.088 155.788 129.448 153.071 131.049C151.68 131.838 150.15 132.351 148.564 132.56C146.973 132.748 145.362 132.645 143.807 132.257C142.264 131.891 140.779 131.314 139.394 130.542C138.686 130.191 138.044 129.736 137.373 129.33C136.743 128.865 136.077 128.447 135.479 127.945C134.226 127.003 133.13 125.904 131.97 124.872C131.379 124.369 130.878 123.769 130.335 123.215C129.812 122.642 129.246 122.111 128.761 121.504C126.734 119.162 124.894 116.664 123.256 114.035C121.589 111.405 120.261 108.576 119.304 105.614C118.837 104.115 118.532 102.57 118.394 101.006C118.368 100.606 118.344 100.232 118.353 99.7969C118.398 99.3849 118.454 99.0019 118.517 98.6079C118.643 97.8219 118.841 97.0489 119.109 96.2989C119.23 95.8849 119.432 95.4989 119.703 95.1639C119.974 94.8289 120.31 94.5509 120.689 94.3469C121.116 94.1799 121.589 94.1699 122.022 94.3199C122.416 94.4549 122.784 94.6569 123.11 94.9159C124.306 95.9349 125.294 97.1759 126.021 98.5689C126.024 98.5749 126.026 98.5809 126.027 98.5869C126.028 98.5929 126.027 98.5989 126.025 98.6049C126.024 98.6109 126.021 98.6169 126.017 98.6219C126.013 98.6269 126.009 98.6309 126.003 98.6339C125.992 98.6389 125.98 98.6409 125.969 98.6379C125.957 98.6349 125.947 98.6279 125.94 98.6179Z" fill="#038B5B"/>
<path d="M81.8701 111.554C83.1171 111.908 84.2481 112.584 85.1501 113.515C86.0791 114.431 86.8221 115.518 87.3381 116.717C87.8561 117.908 88.1461 119.186 88.1961 120.484C88.2211 121.122 88.1881 121.762 88.0981 122.395C87.9891 123.023 87.8231 123.64 87.6021 124.238C87.3801 123.619 87.2801 123.022 87.1171 122.439C86.9421 121.859 86.8371 121.282 86.6431 120.73C86.3331 119.634 85.9521 118.56 85.5041 117.513C85.0551 116.472 84.5291 115.465 83.9321 114.501C83.3071 113.477 82.6181 112.493 81.8701 111.554Z" fill="#038B5B"/>
<path d="M86.2321 135.52C86.6181 139.959 86.8061 144.397 86.9241 148.835C87.0551 153.272 87.0691 157.709 87.0611 162.146C87.0151 166.582 86.9441 171.018 86.7561 175.454C86.5811 179.889 86.3351 184.324 85.8901 188.758C85.5021 184.319 85.3131 179.881 85.1951 175.444C85.0651 171.006 85.0511 166.569 85.0621 162.133C85.1101 157.696 85.1811 153.26 85.3691 148.825C85.5451 144.389 85.7901 139.954 86.2321 135.52Z" fill="#038B5B"/>
<path d="M177.781 106.193C181.443 108.485 185.038 110.872 188.566 113.354C190.332 114.593 192.084 115.854 193.82 117.138L196.405 119.113C196.859 119.453 197.286 119.826 197.682 120.231L198.297 120.872L198.814 121.528C200.154 123.255 201.376 125.071 202.472 126.962C203.576 128.826 204.651 130.702 205.697 132.591C207.763 136.384 209.89 140.136 212.08 143.845C213.175 145.701 214.291 147.545 215.427 149.376L217.128 152.122C217.632 153.02 218.231 153.861 218.915 154.631C219.639 155.341 220.502 156.046 221.253 156.93C222.142 157.857 222.677 159.066 222.765 160.347C222.698 161.66 222.126 162.896 221.168 163.798C220.759 164.211 220.329 164.603 219.879 164.973C219.477 165.297 219.086 165.638 218.703 165.989C217.933 166.696 217.226 167.438 216.505 168.237C215.772 169.047 215.013 169.833 214.243 170.61C212.688 172.162 211.037 173.616 209.3 174.961C207.528 176.333 205.6 177.489 203.555 178.405C202.483 178.858 201.356 179.17 200.203 179.332C198.992 179.512 197.756 179.404 196.594 179.019C196.409 178.963 196.251 178.84 196.151 178.675L196.145 178.664C195.394 177.42 194.572 176.18 193.741 174.967C192.91 173.748 192.041 172.558 191.132 171.397C190.219 170.246 189.244 169.145 188.21 168.101C187.215 167.026 185.997 166.183 184.64 165.631L184.633 165.629C184.609 165.62 184.589 165.603 184.578 165.581C184.566 165.558 184.563 165.533 184.57 165.508C184.576 165.484 184.592 165.463 184.614 165.45C184.635 165.436 184.661 165.432 184.686 165.437C186.168 165.819 187.538 166.547 188.684 167.562C189.86 168.512 190.961 169.551 191.979 170.669C194.025 172.884 195.905 175.248 197.604 177.739L197.154 177.385C199.059 177.773 201.039 177.485 202.753 176.571C204.625 175.678 206.385 174.567 207.996 173.26C209.665 171.965 211.26 170.578 212.775 169.105C213.542 168.373 214.3 167.629 215.034 166.86C215.777 166.078 216.579 165.28 217.417 164.552C217.838 164.186 218.269 163.83 218.715 163.49C219.119 163.153 219.502 162.865 219.84 162.522C220.495 161.958 220.923 161.175 221.044 160.319C220.992 159.431 220.638 158.587 220.04 157.928C219.428 157.14 218.654 156.426 217.903 155.569C217.705 155.345 217.52 155.11 217.348 154.865L216.915 154.131L216.135 152.7L214.61 149.845C213.604 147.937 212.576 146.043 211.527 144.163C209.423 140.404 207.205 136.708 204.803 133.133C202.421 129.564 200.005 125.95 197.425 122.652L196.937 122.042L196.428 121.522C196.08 121.149 195.701 120.804 195.297 120.492L192.783 118.495L187.707 114.509C184.316 111.855 180.968 109.137 177.663 106.355C177.644 106.339 177.631 106.316 177.628 106.291C177.625 106.265 177.632 106.24 177.647 106.22C177.662 106.199 177.684 106.185 177.709 106.18C177.734 106.175 177.759 106.18 177.781 106.194V106.193Z" fill="#038B5B"/>
<path d="M191.168 138.487C189.418 145.066 187.764 151.661 186.384 158.281C185.673 161.563 185.178 164.887 184.899 168.233C184.804 169.842 184.795 171.619 184.654 173.341C184.516 175.096 184.222 176.836 183.776 178.54C182.725 181.908 181.041 185.044 178.814 187.78C177.786 189.152 176.695 190.479 175.675 191.812C175.184 192.474 174.686 193.131 174.245 193.839C173.772 194.522 173.345 195.241 172.919 195.962C171.245 198.889 169.747 201.914 168.436 205.02C167.051 208.114 165.858 211.294 164.692 214.493C166.177 207.805 168.482 201.327 171.555 195.204C172.348 193.656 173.257 192.171 174.274 190.759C175.282 189.365 176.315 188.034 177.289 186.658C179.336 184.084 180.884 181.148 181.85 178.004C182.279 176.421 182.566 174.803 182.709 173.169C182.868 171.502 182.863 169.875 183.016 168.093C183.373 164.666 183.992 161.272 184.867 157.939C186.546 151.326 188.651 144.829 191.168 138.487Z" fill="#038B5B"/>
<path d="M266.612 227.57C266.215 227.571 265.833 227.413 265.551 227.132C265.27 226.851 265.112 226.469 265.111 226.071C265.111 225.673 265.269 225.292 265.55 225.01C265.831 224.729 266.212 224.571 266.61 224.57L301.528 224.524H301.53C301.727 224.524 301.922 224.563 302.104 224.638C302.286 224.713 302.452 224.824 302.591 224.963C302.731 225.102 302.841 225.268 302.917 225.449C302.992 225.631 303.031 225.826 303.031 226.023C303.031 226.22 302.993 226.415 302.917 226.598C302.842 226.78 302.732 226.945 302.593 227.084C302.453 227.224 302.288 227.334 302.106 227.41C301.924 227.485 301.729 227.524 301.532 227.524L266.614 227.57H266.612Z" fill="#038B5B"/>
<path d="M44.4821 226.575L0.455078 226.991L0.483078 229.991L44.5111 229.575L44.4821 226.575Z" fill="#038B5B"/>
<path d="M166.518 91.0691C166.887 91.0571 167.238 90.9011 167.495 90.6351C167.752 90.3681 167.896 90.0131 167.896 89.6431C167.896 89.2731 167.752 88.9171 167.495 88.6511C167.238 88.3851 166.887 88.2291 166.518 88.2161C166.148 88.2291 165.797 88.3851 165.54 88.6511C165.283 88.9171 165.139 89.2731 165.139 89.6431C165.139 90.0131 165.283 90.3681 165.54 90.6351C165.797 90.9011 166.148 91.0571 166.518 91.0691Z" fill="#038B5B"/>
<path d="M204.272 238.952C209.314 242.389 214.987 244.791 220.963 246.02C223.931 246.592 226.955 246.809 229.974 246.666C232.986 246.503 235.969 245.997 238.866 245.157C244.651 243.395 250.11 240.699 255.024 237.174C256.258 236.341 257.424 235.413 258.511 234.396C259.597 233.367 260.619 232.273 261.573 231.121C263.48 228.816 265.131 226.31 266.495 223.647L266.399 224.051V224.042L266.4 224.02C266.402 223.888 266.434 223.757 266.494 223.639C267.673 221.324 268.636 218.906 269.371 216.415C270.102 213.912 270.574 211.341 270.78 208.743L270.784 208.688L270.79 208.653C270.804 208.602 270.787 208.626 270.804 208.719L270.795 208.562C271.206 203.301 270.467 198.014 268.628 193.068C266.75 188.13 263.842 183.649 260.098 179.922C256.397 176.259 252 173.375 247.166 171.44C242.331 169.505 237.159 168.559 231.953 168.657C226.747 168.755 221.613 169.896 216.855 172.011C212.097 174.127 207.812 177.174 204.252 180.974C200.681 184.788 197.903 189.271 196.076 194.166C194.256 199.124 193.41 204.387 193.585 209.665C193.586 209.679 193.584 209.692 193.579 209.705C193.574 209.718 193.567 209.729 193.557 209.739C193.548 209.749 193.537 209.757 193.525 209.762C193.512 209.768 193.499 209.771 193.486 209.771C193.46 209.771 193.434 209.762 193.415 209.744C193.396 209.727 193.383 209.703 193.38 209.677C192.743 204.324 193.255 198.896 194.881 193.756C196.519 188.561 199.239 183.772 202.862 179.705C206.495 175.606 210.948 172.316 215.933 170.047C220.928 167.784 226.349 166.612 231.833 166.611C237.281 166.557 242.68 167.651 247.678 169.821C252.676 171.99 257.161 175.188 260.842 179.205C264.487 183.17 267.33 187.803 269.213 192.849C271.093 197.904 272.001 203.269 271.89 208.661L271.882 208.504C271.904 208.625 271.902 208.75 271.876 208.87L271.886 208.781C271.813 211.483 271.458 214.171 270.828 216.8C270.206 219.44 269.295 222.004 268.111 224.444L268.206 224.042V224.051C268.208 224.186 268.178 224.318 268.119 224.439L268.11 224.456C266.725 227.271 264.994 229.901 262.957 232.286C261.943 233.479 260.859 234.61 259.709 235.673C258.539 236.724 257.292 237.686 255.979 238.552C250.887 242.128 245.221 244.806 239.225 246.47C233.202 248.106 226.872 248.261 220.776 246.921C214.76 245.487 209.103 242.832 204.155 239.122C204.133 239.106 204.119 239.082 204.114 239.056C204.11 239.029 204.116 239.002 204.131 238.98C204.146 238.958 204.169 238.943 204.196 238.937C204.222 238.932 204.249 238.938 204.272 238.952Z" fill="#038B5B"/>
<path d="M213.093 172.881C212.818 173.617 212.587 174.362 212.355 175.104C212.127 175.848 211.905 176.591 211.705 177.34C211.482 178.08 211.302 178.834 211.125 179.589L210.546 181.832L210.575 181.644C210.573 181.729 210.557 181.813 210.527 181.893C210.491 181.99 210.435 182.079 210.364 182.154C210.292 182.229 210.206 182.289 210.11 182.331C210.015 182.372 209.912 182.394 209.809 182.395L210.537 181.841C210.116 184.013 209.596 186.15 209.153 188.308C208.747 190.474 208.338 192.641 207.996 194.823C207.639 197.003 207.286 199.185 206.987 201.384C206.647 203.578 206.325 205.782 205.943 207.991C205.743 205.759 205.677 203.517 205.745 201.277C205.783 199.035 205.937 196.796 206.205 194.57C206.485 192.346 206.822 190.123 207.311 187.93C207.534 186.829 207.833 185.743 208.14 184.661C208.449 183.58 208.734 182.493 209.068 181.422L209.797 180.868C209.696 180.869 209.596 180.89 209.503 180.931C209.41 180.971 209.326 181.03 209.256 181.103C209.186 181.177 209.132 181.263 209.097 181.358C209.068 181.435 209.052 181.516 209.05 181.599L209.079 181.411C209.632 179.931 210.142 178.446 210.797 177.008C211.434 175.565 212.203 174.184 213.093 172.881Z" fill="#038B5B"/>
<path d="M251.907 172.881C253.27 175.227 254.396 177.703 255.268 180.272C255.752 181.544 256.095 182.856 256.513 184.15C256.884 185.456 257.192 186.778 257.533 188.094C258.718 193.395 259.48 198.782 259.811 204.204C260.153 209.614 260.158 215.041 259.824 220.451C259.658 223.152 259.355 225.844 259.097 228.532C258.682 231.208 258.322 233.884 257.846 236.542C257.89 233.835 258.062 231.149 258.158 228.459L258.326 220.399C258.312 219.056 258.305 217.715 258.315 216.374L258.322 214.363L258.251 212.354L258.144 208.337L257.896 204.33C257.578 198.988 256.968 193.668 256.069 188.392L255.298 184.454C254.988 183.155 254.739 181.833 254.373 180.547C253.752 177.931 252.928 175.368 251.907 172.881Z" fill="#038B5B"/>
<path d="M231.623 225.711C232.241 225.09 232.766 224.383 233.183 223.611C233.173 224.511 233.153 225.401 233.133 226.301C233.003 232.801 232.753 239.301 232.383 245.801C232.013 239.301 231.763 232.801 231.633 226.301C231.633 226.101 231.623 225.911 231.623 225.711Z" fill="#038B5B"/>
<path d="M231.893 219.282C231.893 219.282 232.553 218.492 233.273 217.452C233.263 218.462 233.253 219.482 233.233 220.492C232.886 219.989 232.427 219.575 231.893 219.282Z" fill="#038B5B"/>
<path d="M233.343 205.831V207.751L233.313 212.461C232.681 212.513 232.057 212.637 231.453 212.831C231.443 211.131 231.433 209.441 231.423 207.751V205.831C231.463 193.141 231.643 180.461 232.383 167.771C233.113 180.461 233.303 193.141 233.343 205.831Z" fill="#038B5B"/>
<path d="M196.917 190.536C202.472 188.067 208.287 186.228 214.252 185.054C220.226 183.833 226.302 183.188 232.399 183.127C235.449 183.036 238.495 183.28 241.538 183.45C243.054 183.619 244.565 183.839 246.076 184.032C246.831 184.138 247.589 184.216 248.34 184.346L250.576 184.826C256.541 186.023 262.338 187.941 267.841 190.536C266.38 190.12 264.931 189.688 263.494 189.239L261.336 188.576C260.614 188.367 259.867 188.24 259.135 188.068L254.748 187.047C253.275 186.765 251.788 186.552 250.311 186.301L248.095 185.938C247.353 185.84 246.605 185.781 245.861 185.701C244.371 185.557 242.884 185.385 241.393 185.263C238.401 185.153 235.415 184.925 232.42 185.046C226.424 185.098 220.441 185.592 214.517 186.523L210.078 187.292C208.609 187.603 207.128 187.879 205.663 188.219C202.715 188.845 199.809 189.645 196.917 190.536Z" fill="#038B5B"/>
<path d="M231.493 228.952L240.69 227.765C243.733 227.336 246.769 226.88 249.785 226.333C252.806 225.814 255.814 225.202 258.818 224.558C260.305 224.183 261.806 223.845 263.315 223.513L264.452 223.279L265.571 222.988C266.319 222.798 267.077 222.62 267.843 222.452C267.154 222.808 266.457 223.154 265.751 223.49C265.051 223.836 264.334 224.143 263.601 224.412C262.145 224.959 260.681 225.501 259.203 226.006C256.226 226.94 253.191 227.681 250.119 228.224C243.977 229.357 237.704 229.602 231.493 228.952Z" fill="#038B5B"/>
<path d="M193.373 206.792C195.343 206.672 197.313 206.572 199.283 206.492C198.745 206.635 198.218 206.812 197.703 207.022C196.253 206.952 194.813 206.872 193.373 206.792Z" fill="#038B5B"/>
<path d="M271.393 206.792C264.893 207.162 258.393 207.412 251.893 207.542C245.703 207.682 239.523 207.731 233.343 207.752H231.423C230.643 207.752 229.873 207.742 229.093 207.742C229.173 206.912 228.763 206.362 227.603 206.302C226.582 206.274 225.583 206.606 224.783 207.242C224.603 207.382 224.403 207.532 224.173 207.702C218.103 207.662 212.036 207.545 205.973 207.352C205.948 207.136 205.881 206.928 205.774 206.739C205.668 206.55 205.524 206.384 205.353 206.252C214.043 205.952 222.733 205.862 231.423 205.832H233.343C239.523 205.852 245.703 205.902 251.893 206.042C258.393 206.162 264.893 206.412 271.393 206.792Z" fill="#038B5B"/>
<path d="M209.813 181.621C209.813 181.623 209.812 181.624 209.812 181.625C209.811 181.627 209.811 181.628 209.81 181.629C209.809 181.63 209.808 181.63 209.806 181.631C209.805 181.631 209.804 181.632 209.803 181.631C208.877 183.38 208.156 185.228 207.653 187.141C207.643 187.161 207.643 187.191 207.633 187.211C206.883 190.101 207.253 190.631 206.263 193.481C205.703 195.091 205.203 196.021 205.483 197.352C205.749 198.189 206.087 199.002 206.493 199.781C206.613 200.031 206.733 200.302 206.873 200.602C207.563 202.122 207.733 202.481 207.583 202.941C207.393 203.501 206.953 203.571 206.143 204.061C205.857 204.228 205.586 204.419 205.333 204.632C204.852 204.992 204.41 205.401 204.013 205.852C201.015 205.82 198.063 206.59 195.463 208.082C194.843 208.432 194.173 208.781 193.453 209.151H193.443C193.413 208.721 193.403 208.292 193.383 207.862C193.373 207.502 193.373 207.152 193.373 206.792C193.365 201.18 194.573 195.633 196.913 190.531L196.923 190.521H196.933C197.873 188.455 198.998 186.477 200.293 184.612C204.643 180.372 209.333 178.171 210.893 178.181C211.061 178.166 211.23 178.216 211.363 178.322C211.713 178.671 210.873 179.631 209.813 181.621Z" fill="#038B5B"/>
<path d="M271.393 206.792C271.393 207.122 271.393 207.452 271.373 207.782C271.373 208.062 271.353 208.332 271.343 208.612C271.343 208.662 271.333 208.712 271.333 208.762C271.331 209.052 271.314 209.343 271.283 209.632C270.93 214.629 269.609 219.509 267.393 224.002C267.365 224.019 267.334 224.033 267.303 224.042V224.052C267.041 224.176 266.76 224.257 266.473 224.292C266.136 224.326 265.797 224.288 265.476 224.182C265.155 224.075 264.861 223.901 264.613 223.672C264.603 223.662 264.593 223.642 264.573 223.632C263.763 222.742 264.413 221.502 264.153 219.642C263.933 218.102 263.123 217.012 261.513 214.842C260.812 213.845 260.029 212.909 259.173 212.042C258.583 211.472 258.033 211.122 257.643 211.282C257.153 211.502 257.003 212.542 257.183 213.302C257.453 214.442 258.373 214.542 258.573 215.462C258.843 216.672 257.613 218.072 256.563 218.712C255.976 219.106 255.298 219.342 254.593 219.396C253.889 219.451 253.182 219.322 252.543 219.022C251.103 218.182 251.143 216.392 250.372 216.392C249.762 216.402 249.222 217.522 249.132 218.402C249.062 218.952 249.156 219.511 249.404 220.008C249.651 220.505 250.04 220.917 250.522 221.192C251.512 221.612 252.152 220.742 253.312 221.192C253.66 221.306 253.971 221.509 254.215 221.781C254.459 222.053 254.627 222.384 254.702 222.742C254.752 223.692 253.452 224.432 251.762 225.372C249.832 226.442 249.232 226.392 246.962 227.542C246.742 227.652 246.542 227.752 246.352 227.852C245.465 228.26 244.632 228.778 243.872 229.392C242.312 230.672 242.462 231.242 240.932 232.492C239.933 233.419 238.704 234.061 237.372 234.352C236.162 234.552 235.912 234.182 233.812 234.042C233.337 234.007 232.859 233.997 232.382 234.012C231.463 234.024 230.545 234.084 229.632 234.192C228.564 234.297 227.504 234.481 226.462 234.742C231.822 232.012 232.532 227.882 230.302 226.902C230.302 226.902 236.642 222.092 231.892 219.282C231.892 219.282 239.572 210.142 230.902 213.002C230.182 213.249 229.496 213.588 228.862 214.012C228.592 214.182 228.283 214.392 227.932 214.612L226.902 211.992V211.982C228.932 209.222 230.292 206.432 227.602 206.302C226.581 206.274 225.583 206.607 224.782 207.242C224.162 207.712 223.272 208.372 222.152 209.132L219.882 206.792C219.364 205.948 219.046 204.997 218.952 204.012C218.911 202.924 219.096 201.84 219.495 200.828C219.895 199.816 220.5 198.898 221.272 198.132C222.698 196.622 224.521 195.547 226.532 195.032C228.11 194.422 229.813 194.209 231.492 194.412C231.772 194.462 232.072 194.522 232.382 194.602C233.362 194.832 234.372 195.172 234.892 195.342C235.777 195.743 236.718 196.006 237.682 196.122C238.942 196.182 239.293 195.802 239.842 196.122C240.532 196.502 240.422 197.302 240.932 199.212C241.442 201.102 241.862 202.702 242.942 203.082C243.752 203.362 244.192 202.702 245.112 203.082C245.712 203.332 245.712 203.692 246.652 204.632C247.482 205.452 247.902 205.862 248.512 206.022C249.094 206.154 249.702 206.107 250.256 205.885C250.81 205.664 251.283 205.279 251.612 204.782C251.732 204.572 251.952 204.132 251.762 202.312C251.532 200.012 251.422 198.862 250.682 198.132C249.782 197.242 249.082 197.892 246.962 197.202C244.532 196.412 244.712 195.312 242.012 194.262C240.202 193.562 239.722 193.892 238.302 193.022C237.152 192.322 235.692 191.022 235.972 190.232C236.282 189.392 238.282 190.042 239.072 188.842C239.692 187.912 238.832 187.002 239.532 185.742C239.942 185.022 240.792 184.332 241.392 184.512C242.052 184.702 241.802 185.772 242.632 187.142C243.401 188.313 244.548 189.185 245.882 189.612C246.892 189.982 248.142 190.442 249.132 189.772C250.012 189.182 250.502 187.832 250.062 187.142C249.492 186.252 247.762 187.012 247.272 186.212C247.192 186.02 247.151 185.814 247.153 185.606C247.154 185.398 247.199 185.192 247.282 185.002C247.412 184.559 247.648 184.155 247.971 183.825C248.293 183.495 248.692 183.25 249.132 183.112C249.642 183.032 250.162 183.222 253.162 185.742C253.322 185.882 253.482 186.012 253.622 186.132L253.632 186.142C255.222 187.492 255.512 187.792 256.102 187.762C256.298 187.749 256.491 187.706 256.672 187.632C256.989 187.499 257.28 187.313 257.533 187.082C258.24 186.392 258.804 185.57 259.193 184.662C259.703 183.482 259.503 183.002 259.813 182.802C260.533 182.342 263.103 183.882 265.803 186.652C266.559 187.903 267.24 189.199 267.843 190.532C269.805 194.792 270.977 199.373 271.303 204.052C271.333 204.502 271.353 204.962 271.373 205.422C271.383 205.872 271.393 206.332 271.393 206.792Z" fill="#038B5B"/>
<path d="M157.274 0.932129C157.833 3.20713 158.263 5.51113 158.562 7.83513C158.893 10.1431 159.106 12.4601 159.297 14.7791C159.451 17.1001 159.58 19.4231 159.592 21.7551C159.638 24.0971 159.55 26.4401 159.328 28.7721C158.766 26.4981 158.334 24.1931 158.036 21.8701C157.706 19.5611 157.493 17.2441 157.304 14.9261C157.153 12.6041 157.024 10.2811 157.012 7.94913C156.967 5.60713 157.054 3.26413 157.274 0.932129Z" fill="#038B5B"/>
<path d="M171.692 30.692C172.226 28.321 172.889 25.981 173.678 23.682C174.432 21.382 175.294 19.126 176.178 16.879C177.096 14.645 178.038 12.421 179.087 10.241C180.111 8.03601 181.257 5.89001 182.517 3.81201C181.986 6.18401 181.324 8.52502 180.535 10.824C179.78 13.123 178.918 15.379 178.032 17.625C177.111 19.858 176.17 22.082 175.12 24.262C174.095 26.466 172.951 28.613 171.692 30.692Z" fill="#038B5B"/>
<path d="M135.362 6.21191C136.6 8.07991 137.726 10.0209 138.735 12.0219C139.767 13.9979 140.693 16.0219 141.598 18.0539C142.468 20.1009 143.316 22.1579 144.056 24.2609C144.832 26.3639 145.481 28.5109 146 30.6919C144.76 28.8249 143.633 26.8849 142.625 24.8829C141.593 22.9059 140.667 20.8829 139.765 18.8499C138.896 16.8019 138.049 14.7449 137.309 12.6419C136.534 10.5389 135.884 8.39191 135.362 6.21191Z" fill="#038B5B"/>
<path d="M42.2278 168.785C41.3338 168.558 40.4228 168.398 39.5038 168.309C39.0688 168.254 38.6278 168.298 38.2118 168.438C37.8188 168.581 37.9428 169.012 38.1608 169.388C38.6678 170.138 39.2758 170.816 39.9678 171.401C40.6418 172.021 41.3558 172.612 42.0818 173.166C42.1478 173.216 42.1898 173.29 42.2008 173.371C42.2118 173.452 42.1898 173.535 42.1408 173.6C42.1068 173.643 42.0628 173.676 42.0128 173.697C41.9618 173.718 41.9078 173.726 41.8538 173.719C39.9618 173.51 38.1788 172.726 36.7448 171.474C36.0178 170.847 35.4148 170.089 34.9658 169.24C34.7288 168.799 34.5598 168.325 34.4648 167.834C34.4088 167.549 34.4148 167.255 34.4818 166.972C34.5308 166.79 34.6208 166.622 34.7438 166.48C34.7818 166.411 34.8178 166.388 34.8748 166.28C35.7088 164.761 36.4208 163.044 37.1458 161.396L39.2738 156.385C39.9868 154.71 40.7098 153.056 41.3218 151.361C41.9508 149.666 42.4618 147.949 43.0538 146.217L44.7888 141.035C45.3788 139.313 46.1018 137.637 46.7518 135.938C49.3508 129.126 52.6788 122.616 56.6778 116.521C58.6968 113.462 61.0798 110.66 63.7758 108.177C64.1158 107.868 64.4468 107.55 64.7958 107.249L65.8858 106.401C66.6098 105.826 67.3668 105.295 68.1548 104.813C69.7368 103.779 71.4858 103.026 73.3238 102.588L73.2208 102.612C76.3468 101.681 79.5698 101.121 82.8258 100.942C86.0458 100.681 89.2718 100.597 92.4908 100.594C95.7108 100.595 98.9288 100.658 102.144 100.782C105.358 100.934 108.565 101.127 111.777 101.389L111.44 101.503C112.682 100.231 113.828 98.8671 114.867 97.4241L116.472 95.2461C116.986 94.4501 117.659 93.7701 118.451 93.2481C120.094 92.3121 122.027 92.0201 123.874 92.4281C125.678 92.7521 127.396 93.4421 128.924 94.4561C128.93 94.4601 128.935 94.4651 128.939 94.4711C128.943 94.4771 128.946 94.4841 128.948 94.4911C128.949 94.4981 128.949 94.5051 128.948 94.5131C128.946 94.5201 128.944 94.5271 128.94 94.5331C128.931 94.5441 128.918 94.5521 128.903 94.5551C128.889 94.5581 128.874 94.5551 128.861 94.5481C127.318 93.6271 125.602 93.0311 123.82 92.7981C122.081 92.5021 120.293 92.8371 118.78 93.7431C118.071 94.2441 117.476 94.8901 117.034 95.6371L115.493 97.8801C114.468 99.4091 113.315 100.847 112.046 102.18C112.005 102.22 111.957 102.251 111.904 102.271C111.851 102.291 111.795 102.299 111.738 102.296L111.708 102.294C108.514 102.099 105.307 101.971 102.104 101.885C98.9008 101.784 95.6978 101.731 92.4958 101.747C89.2948 101.755 86.0978 101.887 82.9138 102.086C79.7498 102.223 76.6118 102.728 73.5638 103.591L73.4958 103.609L73.4608 103.616C71.7598 104.029 70.1338 104.706 68.6428 105.623C67.8698 106.07 67.1248 106.565 66.4118 107.104L65.3308 107.902C64.9848 108.187 64.6528 108.491 64.3128 108.784C63.6198 109.358 62.9618 109.971 62.3398 110.621C61.7208 111.276 61.0618 111.894 60.4748 112.579C59.3268 113.97 58.1248 115.324 57.1158 116.83C52.9598 122.783 49.6158 129.263 47.1708 136.099C46.5788 137.815 45.9148 139.503 45.3838 141.237L43.8218 146.449C43.2888 148.171 42.8368 149.963 42.2008 151.677C41.5948 153.408 40.8788 155.094 40.1848 156.769C39.4928 158.451 38.7508 160.112 38.0148 161.778C37.2528 163.444 36.5598 165.089 35.6228 166.745C35.5458 166.87 35.4588 166.99 35.3628 167.101C35.3688 167.157 35.3218 167.12 35.3208 167.21C35.2878 167.371 35.2868 167.537 35.3178 167.698C35.3938 168.1 35.5298 168.489 35.7198 168.852C36.1168 169.617 36.6438 170.308 37.2758 170.894C38.5658 172.087 40.1908 172.859 41.9308 173.104L41.7028 173.657C40.9708 173.062 40.2708 172.447 39.5988 171.789C38.8998 171.14 38.2978 170.395 37.8098 169.576C37.6848 169.345 37.6098 169.09 37.5918 168.828C37.5918 168.678 37.6388 168.532 37.7248 168.409C37.8108 168.287 37.9328 168.194 38.0738 168.143C38.5448 167.999 39.0428 167.969 39.5278 168.056C40.4518 168.193 41.3648 168.401 42.2568 168.678C42.2638 168.68 42.2708 168.683 42.2758 168.688C42.2818 168.692 42.2868 168.698 42.2898 168.704C42.2938 168.711 42.2958 168.718 42.2968 168.725C42.2978 168.732 42.2968 168.74 42.2948 168.747C42.2908 168.76 42.2818 168.772 42.2688 168.779C42.2568 168.786 42.2418 168.789 42.2278 168.785Z" fill="#038B5B"/>
<path d="M233.19 217.395C233.631 216.743 234.024 216.06 234.367 215.352C234.535 215.004 234.669 214.64 234.768 214.266C234.883 213.921 234.89 213.549 234.786 213.2C234.715 213.049 234.603 212.921 234.463 212.83C234.322 212.74 234.159 212.691 233.992 212.689C233.619 212.646 233.242 212.658 232.873 212.725C232.11 212.863 231.362 213.075 230.64 213.358C229.925 213.661 229.246 214.043 228.616 214.498C227.958 214.941 227.283 215.366 226.602 215.78C225.918 216.191 225.227 216.592 224.509 216.956C223.783 217.354 223.007 217.655 222.202 217.85C222.127 217.865 222.05 217.856 221.98 217.824C221.911 217.793 221.854 217.74 221.817 217.673C221.78 217.607 221.765 217.53 221.774 217.455C221.783 217.379 221.816 217.309 221.868 217.253L221.885 217.235C223.552 215.499 225.106 213.657 226.538 211.722L226.449 211.991V211.981C226.448 211.889 226.476 211.798 226.53 211.723L226.537 211.713C226.981 211.089 227.404 210.452 227.776 209.799C228.155 209.19 228.426 208.521 228.579 207.82C228.673 207.138 228.454 206.931 227.762 206.833C227.084 206.775 226.404 206.914 225.803 207.232C225.488 207.398 225.192 207.595 224.918 207.822C224.605 208.067 224.288 208.297 223.97 208.524C223.33 208.976 222.708 209.451 222.053 209.884C220.751 210.762 219.421 211.596 218.05 212.368C215.309 213.95 212.388 215.197 209.35 216.084C207.802 216.51 206.215 216.779 204.613 216.886C202.979 216.972 201.342 216.809 199.757 216.404C199.638 216.372 199.529 216.311 199.439 216.227C199.349 216.143 199.282 216.037 199.243 215.92C199.204 215.803 199.195 215.679 199.217 215.557C199.238 215.436 199.289 215.322 199.365 215.225L199.377 215.211L203.174 210.455L205.039 208.114C205.119 208 205.173 207.868 205.195 207.73C205.218 207.592 205.208 207.45 205.168 207.316C205.132 207.189 205.068 207.073 204.979 206.976C204.926 206.92 204.868 206.87 204.805 206.824C204.754 206.786 204.698 206.754 204.639 206.729C204.492 206.669 204.334 206.642 204.176 206.65C203.979 206.641 203.698 206.645 203.468 206.65C202.985 206.661 202.503 206.696 202.024 206.751C201.063 206.86 200.116 207.069 199.197 207.374C198.739 207.535 198.288 207.674 197.822 207.849C197.377 208.026 196.94 208.226 196.511 208.447L193.832 209.89C193.722 209.949 193.599 209.981 193.474 209.982H193.453H193.443L193.818 209.892C188.776 212.411 183.688 214.634 178.89 217.408L177.084 218.46C175.188 219.567 173.119 220.348 170.963 220.768C169.534 221.056 168.079 221.197 166.621 221.189C165.142 221.179 163.762 221.003 162.373 220.902L145.673 219.504L128.978 218.038C117.848 217.076 106.717 216.095 95.5809 215.242L91.4059 214.968C90.7069 214.921 90.0199 214.898 89.3339 214.879C88.9199 214.886 88.5109 214.791 88.1429 214.601C87.7939 214.401 87.4929 214.126 87.2619 213.796C86.4959 212.556 85.9959 211.171 85.7949 209.728C85.5479 208.34 85.3789 206.938 85.2909 205.53C85.0069 199.932 85.1059 194.32 85.5869 188.735L85.8059 189.056C81.9609 187.874 78.1199 186.66 74.3849 185.151C70.6349 183.681 66.9629 182.022 63.3819 180.179C59.8029 178.334 56.3149 176.314 52.8549 174.287C49.3929 172.28 45.8999 170.27 42.1069 169.236L42.7649 168.737C42.7719 179.801 43.0059 190.864 43.4669 201.926C43.7069 207.452 44.0129 212.975 44.4659 218.48C44.5639 219.858 44.7019 221.231 44.8309 222.605C44.9509 223.981 45.0949 225.352 45.2599 226.72C45.4179 228.092 45.5409 229.471 45.7939 230.765C46.0399 232.074 46.4039 233.359 46.8809 234.603C48.8599 239.603 52.4489 243.801 57.0799 246.535C59.3759 247.917 61.8569 248.967 64.4479 249.651C65.7439 249.996 67.0609 250.255 68.3899 250.428C69.7289 250.593 71.1259 250.702 72.4899 250.842L76.6069 251.237L80.7329 251.504C83.4819 251.719 86.2389 251.778 88.9929 251.89C91.7469 252.016 94.5049 251.965 97.2609 252.012C100.016 251.944 102.775 251.953 105.528 251.806C116.551 251.356 127.528 250.119 138.375 248.104C143.789 247.099 149.235 245.953 154.715 245.042C160.192 244.114 165.683 243.336 171.176 242.591C182.159 241.087 193.164 239.81 204.15 238.439C209.638 237.736 215.137 237.048 220.564 236.074L222.582 235.666C223.257 235.533 223.883 235.313 224.539 235.143C225.165 234.897 225.785 234.625 226.399 234.344C227.002 234.039 227.583 233.693 228.138 233.309C229.249 232.567 230.162 231.565 230.798 230.39C231.102 229.825 231.238 229.184 231.19 228.544C231.163 228.243 231.057 227.954 230.884 227.705C230.711 227.457 230.476 227.258 230.203 227.129C230.166 227.111 230.133 227.085 230.109 227.053C230.084 227.02 230.067 226.982 230.061 226.942C230.054 226.902 230.057 226.86 230.07 226.821C230.084 226.783 230.106 226.748 230.136 226.72L230.151 226.705C230.75 226.21 231.322 225.683 231.864 225.126C232.39 224.56 232.827 223.917 233.16 223.219C233.331 222.885 233.436 222.522 233.466 222.148C233.497 221.774 233.454 221.398 233.338 221.042C233.034 220.338 232.502 219.757 231.828 219.392C231.813 219.384 231.8 219.372 231.79 219.358C231.78 219.345 231.773 219.329 231.768 219.313C231.764 219.296 231.764 219.279 231.766 219.262C231.769 219.245 231.774 219.229 231.783 219.214L231.794 219.199L233.191 217.394L233.196 217.388C233.212 217.367 233.235 217.354 233.261 217.35C233.287 217.347 233.314 217.354 233.335 217.369C233.356 217.385 233.369 217.409 233.373 217.435C233.377 217.461 233.371 217.487 233.355 217.508L231.992 219.364L231.958 219.17C232.699 219.55 233.289 220.169 233.634 220.927C233.774 221.322 233.835 221.742 233.813 222.161C233.791 222.58 233.686 222.99 233.505 223.368C233.175 224.113 232.732 224.802 232.193 225.413C231.645 226.007 231.065 226.569 230.454 227.098L230.403 226.674C230.761 226.834 231.072 227.083 231.305 227.398C231.538 227.713 231.686 228.083 231.734 228.473C231.814 229.219 231.678 229.973 231.342 230.644C230.691 231.935 229.733 233.046 228.552 233.879C227.979 234.297 227.378 234.676 226.753 235.013C226.119 235.324 225.475 235.626 224.822 235.901C224.143 236.1 223.463 236.352 222.782 236.504L220.74 236.968C215.28 238.045 209.795 238.827 204.311 239.627L171.409 244.243C165.934 245.044 160.464 245.879 155.031 246.859C152.309 247.317 149.606 247.904 146.898 248.429C144.193 248.988 141.473 249.567 138.741 250.075C127.804 252.132 116.734 253.405 105.615 253.884C94.4959 254.386 83.3539 254.049 72.2849 252.877C70.8969 252.725 69.5319 252.612 68.1229 252.43C66.7069 252.238 65.3059 251.953 63.9269 251.577C61.1589 250.828 58.5119 249.689 56.0649 248.195C51.0899 245.214 47.2509 240.661 45.1529 235.254C44.6459 233.908 44.2609 232.519 44.0039 231.104C43.7369 229.677 43.6219 228.292 43.4749 226.913C43.3239 225.529 43.1979 224.145 43.0949 222.76C42.9829 221.376 42.8629 219.992 42.7819 218.606C42.3979 213.066 42.1619 207.524 41.9929 201.982C41.6589 190.896 41.5679 179.811 41.7209 168.726V168.716C41.7219 168.648 41.7359 168.581 41.7629 168.519C41.7889 168.457 41.8279 168.401 41.8759 168.353C41.9249 168.306 41.9819 168.269 42.0449 168.244C42.1079 168.219 42.1749 168.206 42.2429 168.207C42.2889 168.208 42.3339 168.215 42.3789 168.227C46.3509 169.373 49.8609 171.476 53.3009 173.529C56.7449 175.599 60.1669 177.68 63.7209 179.526C67.2719 181.376 70.9139 183.044 74.6339 184.523C78.3399 186.043 82.1579 187.27 85.9799 188.467C86.0469 188.488 86.1059 188.531 86.1449 188.589C86.1849 188.648 86.2039 188.718 86.1989 188.788C85.7209 194.339 85.6489 199.917 85.9829 205.479C86.0789 206.859 86.2529 208.233 86.5039 209.593C86.6969 210.922 87.1579 212.198 87.8599 213.343C88.0289 213.586 88.2499 213.789 88.5059 213.937C88.7619 214.066 89.0459 214.127 89.3319 214.115C90.0419 214.129 90.7509 214.149 91.4459 214.191L95.6349 214.426C106.794 215.091 117.94 215.876 129.087 216.659L145.805 217.859L162.514 219.17C163.911 219.266 165.31 219.431 166.626 219.43C167.963 219.43 169.297 219.294 170.607 219.023C171.914 218.752 173.189 218.347 174.411 217.813C175.022 217.546 175.617 217.246 176.195 216.915L178.016 215.87C182.918 213.079 188.102 210.853 193.068 208.411L193.079 208.405C193.193 208.35 193.317 208.321 193.443 208.321H193.453L193.074 208.413L195.764 206.986C196.239 206.746 196.726 206.525 197.226 206.331C197.71 206.152 198.23 205.991 198.73 205.822C199.742 205.496 200.785 205.274 201.843 205.161C202.372 205.103 202.903 205.068 203.435 205.059C203.712 205.056 203.939 205.052 204.249 205.065C204.6 205.068 204.946 205.14 205.269 205.278C205.443 205.354 205.607 205.45 205.758 205.565C205.9 205.671 206.031 205.789 206.15 205.92C206.403 206.201 206.586 206.538 206.685 206.903C206.783 207.259 206.801 207.632 206.738 207.996C206.675 208.36 206.533 208.705 206.321 209.007L204.379 211.417L200.549 216.152L200.169 214.959C201.597 215.332 203.072 215.496 204.548 215.448C206.051 215.369 207.542 215.14 208.999 214.763C211.947 213.951 214.788 212.789 217.461 211.301C218.811 210.569 220.129 209.772 221.418 208.932C222.065 208.518 222.687 208.059 223.323 207.624C223.642 207.405 223.956 207.184 224.259 206.954C224.591 206.692 224.948 206.465 225.325 206.274C226.114 205.875 227.002 205.712 227.882 205.806C228.405 205.842 228.895 206.077 229.25 206.464C229.408 206.677 229.518 206.923 229.572 207.183C229.626 207.443 229.624 207.712 229.565 207.971C229.384 208.791 229.06 209.573 228.607 210.281C228.198 210.961 227.751 211.618 227.269 212.249L227.357 211.981V211.991L227.356 212.005C227.355 212.098 227.324 212.188 227.268 212.261C225.765 214.192 224.139 216.025 222.401 217.747L222.084 217.133C223.569 216.708 224.986 216.076 226.294 215.255C226.977 214.863 227.654 214.459 228.321 214.034C228.99 213.577 229.708 213.197 230.462 212.9C231.224 212.623 232.011 212.421 232.812 212.297C233.226 212.236 233.646 212.238 234.06 212.301C234.29 212.32 234.511 212.402 234.697 212.539C234.884 212.675 235.03 212.86 235.118 213.074C235.237 213.492 235.222 213.938 235.074 214.347C234.958 214.736 234.805 215.113 234.616 215.473C234.245 216.181 233.823 216.861 233.355 217.508C233.34 217.529 233.317 217.544 233.291 217.548C233.265 217.553 233.238 217.547 233.217 217.532C233.195 217.517 233.18 217.495 233.175 217.469C233.17 217.443 233.176 217.416 233.19 217.395Z" fill="#038B5B"/>
<path d="M222.457 217.95C220.948 218.834 219.426 219.65 217.861 220.399C216.312 221.174 214.69 221.792 213.019 222.246C214.618 221.621 216.151 220.839 217.595 219.91C219.05 219.011 220.472 218.038 221.836 217.028L221.844 217.022C221.962 216.934 222.111 216.897 222.257 216.919C222.403 216.941 222.534 217.02 222.622 217.139C222.71 217.257 222.747 217.406 222.726 217.552C222.704 217.698 222.625 217.829 222.507 217.917C222.491 217.929 222.474 217.94 222.457 217.95Z" fill="#038B5B"/>
<path d="M232.223 219.734C229.638 221.492 227.021 223.178 224.338 224.769C222.994 225.559 221.64 226.335 220.241 227.026C219.546 227.382 218.834 227.702 218.107 227.986C217.747 228.137 217.376 228.261 216.997 228.357C216.622 228.466 216.235 228.526 215.845 228.535C216.232 228.503 216.612 228.421 216.977 228.29C217.346 228.173 217.706 228.029 218.053 227.857C218.756 227.534 219.443 227.174 220.11 226.781C221.455 226.013 222.754 225.163 224.041 224.299C226.608 222.563 229.117 220.726 231.566 218.837L231.571 218.833C231.688 218.743 231.836 218.703 231.982 218.722C232.128 218.741 232.261 218.817 232.351 218.934C232.441 219.051 232.481 219.199 232.462 219.345C232.443 219.491 232.367 219.624 232.25 219.714L232.223 219.734Z" fill="#038B5B"/>
<path d="M230.661 227.332C229.653 228.069 228.594 228.736 227.492 229.325C226.408 229.918 225.291 230.447 224.145 230.91C221.872 231.844 219.493 232.498 217.062 232.858C219.438 232.321 221.74 231.496 223.916 230.403C225 229.866 226.052 229.267 227.066 228.608C228.074 227.966 229.037 227.254 229.947 226.479L229.965 226.464C230.02 226.415 230.084 226.379 230.154 226.355C230.223 226.332 230.297 226.322 230.37 226.328C230.443 226.333 230.514 226.352 230.58 226.385C230.646 226.418 230.704 226.463 230.752 226.518C230.8 226.574 230.837 226.638 230.86 226.708C230.883 226.777 230.892 226.851 230.887 226.924C230.881 226.997 230.861 227.068 230.828 227.134C230.795 227.199 230.75 227.258 230.694 227.305C230.684 227.314 230.672 227.324 230.661 227.332Z" fill="#038B5B"/>
<path d="M203.612 185.531C203.53 185.531 203.449 185.511 203.376 185.472C203.303 185.433 203.241 185.376 203.195 185.307L198.878 178.786C198.842 178.731 198.817 178.67 198.804 178.605C198.791 178.541 198.792 178.474 198.805 178.41C198.818 178.346 198.843 178.285 198.88 178.23C198.917 178.176 198.964 178.129 199.019 178.093C199.073 178.056 199.135 178.031 199.199 178.019C199.264 178.006 199.33 178.006 199.394 178.019C199.459 178.032 199.52 178.058 199.574 178.095C199.629 178.131 199.676 178.178 199.712 178.233L204.029 184.755C204.102 184.865 204.129 185 204.102 185.13C204.076 185.26 203.999 185.375 203.889 185.448C203.807 185.503 203.711 185.531 203.612 185.531Z" fill="#038B5B"/>
<path d="M225.842 169.231C225.759 169.231 225.678 169.211 225.605 169.172C225.532 169.133 225.471 169.076 225.425 169.008L221.106 162.486C221.07 162.431 221.045 162.37 221.032 162.306C221.02 162.241 221.02 162.175 221.033 162.11C221.046 162.046 221.072 161.985 221.109 161.93C221.145 161.876 221.192 161.829 221.247 161.793C221.302 161.756 221.363 161.731 221.428 161.719C221.492 161.706 221.559 161.706 221.623 161.719C221.687 161.733 221.748 161.758 221.803 161.795C221.857 161.832 221.904 161.879 221.94 161.933L226.259 168.455C226.309 168.53 226.337 168.618 226.342 168.708C226.346 168.798 226.326 168.888 226.283 168.968C226.24 169.048 226.176 169.114 226.099 169.16C226.021 169.207 225.932 169.231 225.842 169.231Z" fill="#038B5B"/>
</svg>
