<svg width="638" height="471" viewBox="0 0 638 471" fill="none" xmlns="http://www.w3.org/2000/svg">
<path d="M160.329 99.3309H160.314C160.29 99.3328 160.267 99.3271 160.245 99.3139L160.234 99.3064C158.259 98.1574 156.232 97.1327 154.161 96.2379C152.106 95.3413 149.977 94.473 147.908 93.776L148.076 93.8043L148.045 93.8062C147.994 93.8081 147.942 93.8005 147.893 93.7835L147.852 93.7685C136.915 89.8279 125.558 87.6316 114.101 87.2398C108.39 87.0458 102.675 87.2549 96.9872 87.8652L79.7475 89.5397C68.2494 90.604 56.7301 91.365 45.2173 92.207C33.7012 93.0094 22.19 93.8777 10.6953 94.9778L10.9412 93.9663C12.9748 95.6634 14.8363 97.6205 16.4877 99.7961C18.1228 102 19.5168 104.424 20.6369 107.016C21.721 109.627 22.5803 112.351 23.2019 115.153C23.7923 117.96 24.1695 120.821 24.3335 123.703C24.6123 129.463 24.2745 135.241 23.3282 140.906C22.4327 146.597 21.0289 152.165 19.1363 157.524L17.7669 155.501C25.8554 153.745 33.9406 151.975 42.0389 150.287L66.3241 145.167L64.9973 146.54L65.1728 145.941L65.1203 146.105C66.2945 141.835 68.7152 138.16 71.9722 135.7C75.2096 133.246 79.0505 132.055 82.9225 132.306C86.8126 132.592 90.5026 134.383 93.3923 137.388C93.7695 137.736 94.1106 138.132 94.4074 138.571L95.3455 139.838C95.908 140.729 96.4279 141.658 96.9002 142.617C97.3496 143.568 97.6563 144.548 98.0368 145.512C98.2155 145.996 98.409 146.476 98.5714 146.966L98.9732 148.46C100.905 156.367 101.648 164.595 101.169 172.789C100.851 180.873 99.8637 188.903 98.2204 196.771L97.0052 195.372L113.331 191.45L129.69 187.694C129.731 187.685 129.774 187.694 129.81 187.721C129.846 187.747 129.871 187.788 129.879 187.834C129.889 187.881 129.882 187.931 129.861 187.973C129.838 188.012 129.804 188.043 129.763 188.056L113.628 192.916L97.4644 197.636C97.302 197.683 97.1315 197.683 96.9691 197.636C96.8067 197.587 96.6575 197.493 96.5345 197.361C96.4131 197.229 96.3213 197.063 96.2688 196.881C96.2163 196.698 96.2065 196.502 96.2377 196.312L96.2491 196.236C97.5546 188.472 98.2991 180.597 98.4779 172.691C98.7715 164.889 97.9072 157.085 95.9228 149.616L95.5407 148.251C95.3881 147.81 95.2077 147.386 95.0437 146.953C94.6944 146.105 94.4025 145.194 94.0138 144.399C93.5743 143.66 93.2283 142.839 92.7297 142.157L91.9638 141.153C91.7293 140.801 91.4521 140.486 91.1438 140.217C88.8035 137.849 85.8368 136.455 82.7224 136.263C79.5933 136.058 76.4888 137.013 73.8697 138.989C71.2605 140.965 69.3089 143.896 68.3281 147.305L68.274 147.467C68.2658 147.514 68.2543 147.56 68.2379 147.605L68.1297 147.887C68.0198 148.17 67.8509 148.417 67.6377 148.607C67.4261 148.797 67.1752 148.925 66.9095 148.978L42.5654 153.711C34.4523 155.311 26.3277 156.825 18.2048 158.355C17.9801 158.396 17.7489 158.37 17.5357 158.274C17.3241 158.178 17.1372 158.017 16.9961 157.81C16.8567 157.603 16.7682 157.356 16.7403 157.096C16.7108 156.835 16.7452 156.571 16.8354 156.33C18.7657 151.208 20.2712 145.887 21.3323 140.441C22.4344 134.984 22.9296 129.39 22.8066 123.792C22.7279 121.002 22.4393 118.224 21.9457 115.489C21.4225 112.765 20.6369 110.117 19.6037 107.593C18.5492 105.082 17.2306 102.729 15.6776 100.585C14.1015 98.4587 12.3205 96.5431 10.3705 94.8742L10.3558 94.861C10.2787 94.7913 10.2213 94.6971 10.1918 94.5898C10.1606 94.4824 10.1606 94.3675 10.1885 94.2601C10.2164 94.1509 10.2721 94.0548 10.3492 93.9851C10.4247 93.9135 10.5181 93.8702 10.6149 93.8627C22.1129 92.789 33.5929 91.4931 45.068 90.1161C56.5447 88.7806 68.0165 87.366 79.5113 86.2547L96.7575 84.663C102.561 84.0941 108.393 83.9905 114.212 84.356C120.026 84.7252 125.808 85.5973 131.509 86.9667C137.205 88.289 142.799 90.1331 148.239 92.4801L148.045 92.4424L148.076 92.4443L148.121 92.4462C148.163 92.4481 148.204 92.4556 148.244 92.4725C150.4 93.356 152.417 94.3392 154.469 95.3922C156.511 96.4395 158.49 97.6394 160.394 98.9843L160.314 98.9598L160.329 98.9617C160.371 98.9636 160.411 98.9824 160.439 99.0182C160.468 99.0521 160.485 99.0973 160.485 99.1463C160.485 99.1934 160.468 99.2405 160.439 99.2744C160.411 99.3083 160.371 99.329 160.329 99.3309Z" fill="#43DFA8"/>
<path d="M230.83 148.682C229.911 143.397 228.068 138.379 225.409 133.935C224.084 131.807 222.559 129.85 220.862 128.1C219.143 126.376 217.3 124.82 215.355 123.451C211.356 120.765 207.091 118.646 202.651 117.135C198.148 115.568 193.543 114.417 188.882 113.69L188.792 113.68C187.197 113.17 185.61 112.626 184.027 112.047C185.687 112.14 187.34 112.275 188.987 112.443L188.898 112.433C193.766 112.189 198.64 112.722 203.381 114.016C208.196 115.261 212.801 117.401 217.018 120.347C221.316 123.323 224.895 127.489 227.423 132.468C229.857 137.401 231.036 143.018 230.83 148.682Z" fill="#43DFA8"/>
<path d="M78.2305 133.436C81.0381 132.187 83.877 131.1 86.7355 130.115C89.5924 129.115 92.4624 128.194 95.3488 127.346C98.2254 126.457 101.135 125.73 104.033 124.945C106.947 124.242 109.855 123.509 112.79 122.92L113.469 122.782L113.896 123.157C115.099 124.225 116.21 125.425 117.212 126.738C118.205 127.988 119.119 129.32 119.944 130.724C120.772 132.11 121.513 133.56 122.166 135.065C122.824 136.553 123.38 138.098 123.829 139.684C122.988 138.333 122.122 137.024 121.231 135.76C120.328 134.496 119.416 133.236 118.465 132.093C117.494 130.933 116.5 129.81 115.468 128.755C114.46 127.736 113.404 126.781 112.305 125.896L113.41 126.133C110.532 127.018 107.627 127.762 104.73 128.55C101.815 129.251 98.9141 130.012 95.9802 130.607C93.0544 131.253 90.1156 131.816 87.1586 132.298C84.2066 132.797 81.2333 133.199 78.2305 133.436Z" fill="#43DFA8"/>
<path d="M37.3555 91.8981C40.7962 95.5542 43.5055 100.026 45.2914 105.003C47.161 109.979 48.3385 115.263 48.7862 120.657C49.1585 126.039 48.8715 131.456 47.9318 136.746C47.8187 137.403 47.7317 138.066 47.5956 138.716L47.1151 140.648L46.1049 144.48C45.2898 146.976 44.3353 149.411 43.3365 151.786C43.6613 149.136 44.1992 146.595 44.5731 144.026L45.0454 140.163L45.3062 138.249C45.3767 137.608 45.398 136.96 45.4456 136.318C45.5227 135.031 45.6129 133.751 45.7309 132.475C45.8129 131.196 45.7703 129.912 45.7965 128.635C45.8474 126.084 45.7736 123.532 45.5784 120.991C45.1701 115.909 44.2894 110.891 42.9511 106.025C41.603 101.068 39.7236 96.3227 37.3555 91.8981Z" fill="#43DFA8"/>
<path d="M124.696 130.407C127.105 129.375 129.527 128.36 131.966 127.397C131.831 128.54 131.759 129.691 131.753 130.846C129.665 131.598 127.561 132.315 125.444 133.016C124.01 133.489 122.579 133.962 121.13 134.434C120.932 134.084 120.734 133.751 120.535 133.436C120.338 133.103 120.125 132.788 119.941 132.49C121.526 131.773 123.112 131.091 124.696 130.407Z" fill="#43DFA8"/>
<path d="M148.716 124.491C146.856 125.227 145.027 125.962 143.168 126.679H143.153C142.574 125.626 141.9 124.647 141.141 123.756L141.826 123.494C143.884 122.724 145.943 121.953 147.999 121.2C148.243 122.39 148.503 123.494 148.716 124.491Z" fill="#43DFA8"/>
<path d="M138.246 112.957C141.309 111.818 144.373 110.68 147.451 109.578C147.118 110.753 146.957 111.983 146.979 113.219C144.402 114.268 141.796 115.266 139.205 116.282C133.46 118.435 127.684 120.554 121.862 122.46C119.164 123.372 116.452 124.24 113.724 125.069C110.585 126.031 107.445 126.941 104.26 127.73C105.524 127.082 106.79 126.435 108.069 125.803C108.086 125.803 108.086 125.803 108.101 125.787C112.397 123.686 116.757 121.742 121.116 119.87C126.785 117.419 132.515 115.18 138.246 112.957Z" fill="#43DFA8"/>
<path d="M162.218 106.76C161.959 106.882 161.701 107.005 161.442 107.11C160.775 106.47 160.024 105.956 159.217 105.586C160.04 105.325 160.862 105.061 161.685 104.799C161.883 105.534 162.067 106.199 162.218 106.76Z" fill="#43DFA8"/>
<path d="M17.9883 156.921C-16.4173 120.851 10.6608 94.4259 10.6608 94.4259C34.7097 114.426 17.9883 156.921 17.9883 156.921Z" fill="#43DFA8"/>
<path d="M97.231 196.496C68.8394 206.223 66.6172 147.07 66.6172 147.07C66.6516 146.947 66.6844 146.827 66.7189 146.708C70.9878 131.647 89.2853 129.699 95.5976 143.781C104.152 162.864 97.231 196.496 97.231 196.496Z" fill="#43DFA8"/>
<path d="M118.649 189.433C113.947 202.741 109.135 215.911 104.709 229.204C100.184 242.333 96.3724 255.771 93.2925 269.44C92.566 272.795 92.0084 276.195 91.6213 279.623C91.2015 282.942 91.2146 286.314 91.6607 289.627C91.8952 291.187 92.3544 292.69 93.0235 294.073C93.7041 295.387 94.6488 296.497 95.7771 297.309C98.3535 298.808 101.283 299.313 104.13 298.744C110.173 297.538 115.99 295.133 121.315 291.635C122.668 290.774 124.023 289.925 125.358 289.026L129.307 286.205C131.972 284.389 134.468 282.264 137.025 280.269C139.572 278.254 141.994 276.033 144.479 273.933L148.085 270.593C149.285 269.482 150.52 268.423 151.678 267.251C154.007 264.925 156.431 262.746 158.694 260.344L162.146 256.824L165.51 253.192C169.976 248.332 174.272 243.278 178.399 238.034C182.554 232.83 186.543 227.452 190.436 221.984C198.243 211.021 205.513 199.569 212.211 187.677C215.571 181.721 218.795 175.652 221.883 169.474C224.976 163.301 227.937 157.012 230.633 150.566L231.24 150.814C227.592 164.652 222.677 178.007 216.575 190.651C210.551 203.396 203.599 215.532 195.793 226.928C187.902 238.281 179.143 248.799 169.618 258.357L166.043 261.926L162.368 265.358C159.934 267.668 157.385 269.815 154.838 271.953C152.288 274.083 149.638 276.061 147.014 278.058C144.31 279.93 141.679 281.912 138.93 283.679C136.187 285.451 133.479 287.276 130.68 288.919C127.906 290.605 125.14 292.302 122.304 293.877C116.659 297.228 110.637 299.665 104.41 301.123C101.089 301.927 97.6319 301.528 94.5192 299.978C92.9104 299.051 91.5197 297.697 90.4619 296.024C89.468 294.372 88.707 292.547 88.2118 290.622C87.3327 286.926 86.9473 283.1 87.0687 279.275C87.1556 275.564 87.4803 271.864 88.0379 268.206C89.1761 261.022 90.8456 253.961 93.0268 247.098C95.1178 240.253 97.5073 233.563 100.1 226.992C101.371 223.694 102.752 220.454 104.143 217.228C105.522 213.994 106.975 210.803 108.472 207.64C111.456 201.311 114.599 195.084 118.081 189.082L118.649 189.433Z" fill="#43DFA8"/>
<path d="M42.8984 102.092C51.6757 100.576 60.476 99.4231 69.2844 98.3984C78.0929 97.3492 86.9144 96.5185 95.7376 95.7274C104.566 95.006 113.397 94.3316 122.243 93.872C131.086 93.3879 139.939 93.0357 148.815 93.0508C140.039 94.5727 131.237 95.7274 122.429 96.7521C113.622 97.7975 104.8 98.6301 95.9771 99.4156C87.1473 100.133 78.3159 100.808 69.4714 101.267C60.6268 101.748 51.7741 102.102 42.8984 102.092Z" fill="#43DFA8"/>
<path d="M150.697 271.91C149.436 259.054 148.222 246.177 147.135 233.288L146.718 228.454L146.51 226.037C146.489 225.849 146.482 225.606 146.45 225.461C146.412 225.348 146.381 225.229 146.358 225.111C146.253 224.787 146.131 224.47 145.999 224.161C144.754 221.455 143.122 218.748 141.608 216.045C138.518 210.635 135.537 205.089 132.874 199.316C131.555 196.419 130.314 193.466 129.228 190.418C128.154 187.331 127.253 184.256 126.322 181.222C124.449 175.128 122.592 169.029 120.806 162.902L118.094 153.723L117.417 151.428C117.153 150.56 116.975 149.66 116.889 148.746C116.7 146.885 116.928 145.001 117.551 143.27C118.173 141.428 119.353 139.908 120.875 138.989C122.448 138.196 124.226 138.113 125.849 138.761C128.641 139.965 131.189 141.811 133.336 144.19L131.66 145.271C131.273 142.148 131.024 139.006 130.915 135.856C130.863 134.284 130.855 132.694 130.909 131.121C131.025 129.533 131.081 127.921 131.314 126.346C131.514 124.67 132.036 123.065 132.839 121.646C133.32 120.85 134.028 120.273 134.842 120.015C135.622 119.83 136.431 119.881 137.188 120.164C139.927 121.232 142.223 123.424 143.64 126.32L143.153 126.014H143.168L143.484 126.016L143.652 126.314C144.588 128.037 145.434 129.821 146.189 131.66C146.54 132.534 146.95 133.372 147.417 134.171C147.706 134.562 147.702 134.557 148.112 134.585C148.24 134.6 148.37 134.57 148.483 134.496C148.596 134.425 148.688 134.316 148.746 134.182C149.029 133.344 149.144 132.441 149.078 131.545C149.057 130.562 148.99 129.582 148.877 128.606C148.659 126.636 148.321 124.685 147.866 122.769C147.402 120.817 147.028 118.838 146.746 116.841C146.427 114.799 146.402 112.71 146.674 110.659C146.845 109.597 147.188 108.58 147.688 107.662C148.213 106.735 148.928 105.971 149.772 105.439C151.437 104.503 153.29 104.093 155.138 104.251L155.043 104.257C155.832 104.168 156.627 104.198 157.41 104.345C158.182 104.488 158.94 104.735 159.665 105.078C161.129 105.782 162.4 106.935 163.338 108.408L163.279 108.329C163.401 108.478 163.471 108.672 163.479 108.875L163.468 111.861L162.276 109.203L162.261 109.169L162.244 109.135L162.22 109.052C160.084 102.554 158.648 95.7821 157.938 88.8842C157.787 87.0966 157.808 85.2978 158 83.5158C158.144 81.5286 158.894 79.6638 160.117 78.2492C160.831 77.5409 161.703 77.0738 162.636 76.9062C163.54 76.7837 164.455 76.8911 165.319 77.2188C166.863 77.8838 168.273 78.9009 169.465 80.2063C171.706 82.6512 173.674 85.4051 175.327 88.4039C176.993 91.3179 178.523 94.3298 179.912 97.4303C182.805 103.575 185.09 110.073 186.718 116.805C188.271 123.47 189.737 130.074 191.73 136.446C193.739 142.739 196.163 149.072 200.02 153.662C201.809 155.913 204.207 157.407 206.828 157.899C208.173 158.061 209.53 157.997 210.861 157.712C212.276 157.486 213.678 157.157 215.057 156.721C217.824 155.861 220.492 154.627 223.005 153.043C225.489 151.483 227.785 149.556 229.834 147.309L231.479 145.433L232.354 147.727C233.306 150.308 233.883 153.047 234.063 155.84C234.262 158.549 234.176 161.274 233.812 163.958C233.037 169.27 231.364 174.356 228.886 178.93C227.656 181.252 226.158 183.375 224.436 185.238C222.683 187.027 220.769 188.594 218.726 189.915C216.715 191.213 214.654 192.29 212.766 193.499C210.923 194.524 209.345 196.088 208.192 198.032C207.231 200.139 206.723 202.481 206.71 204.86C206.562 207.391 206.478 209.944 206.452 212.505C206.396 217.627 206.482 222.766 206.641 227.9C206.813 233.037 206.987 238.176 207.277 243.308C207.594 248.432 207.84 253.591 208.591 258.639L208.294 258.718C207.336 253.652 206.893 248.52 206.375 243.397C205.903 238.27 205.471 233.135 205.176 227.987C204.879 222.839 204.655 217.684 204.571 212.509C204.529 209.921 204.547 207.324 204.625 204.715C204.586 201.933 205.134 199.179 206.221 196.69C207.543 194.319 209.386 192.386 211.562 191.09C213.57 189.751 215.579 188.649 217.457 187.381C219.303 186.136 221.029 184.669 222.605 183.004C224.12 181.299 225.427 179.367 226.493 177.263C228.696 173.019 230.158 168.323 230.798 163.437C231.116 161.029 231.185 158.586 231 156.16C230.837 153.809 230.357 151.504 229.579 149.323L232.102 149.741C227.556 154.757 221.98 158.368 215.892 160.242C214.39 160.722 212.86 161.09 211.315 161.344C210.526 161.442 209.803 161.611 208.958 161.647L207.69 161.691C207.267 161.662 206.843 161.606 206.418 161.559C203.074 160.99 200.005 159.114 197.727 156.245C193.291 150.803 190.926 144.137 188.88 137.601C186.889 131.01 185.46 124.263 183.981 117.644C183.605 115.993 183.228 114.351 182.774 112.795C182.311 111.209 181.788 109.627 181.242 108.056C180.148 104.91 178.941 101.804 177.624 98.7676C176.324 95.7293 174.884 92.772 173.313 89.9089C171.802 87.0684 170.008 84.4407 167.966 82.0805C167.018 80.9748 165.89 80.0952 164.647 79.4924C164.091 79.2607 163.501 79.1665 162.912 79.2136C162.359 79.2984 161.836 79.5564 161.401 79.9595C160.501 81.005 159.942 82.3762 159.819 83.8417C159.606 85.4654 159.548 87.1117 159.647 88.7505C160.201 95.5297 161.474 102.207 163.437 108.632L163.397 108.515L163.412 108.551L162.208 108.879C162.207 108.969 162.221 109.056 162.249 109.139C162.279 109.22 162.323 109.295 162.379 109.357L162.318 109.278C161.539 107.977 160.462 106.948 159.205 106.304C157.943 105.667 156.565 105.398 155.191 105.519L155.13 105.524L155.094 105.522C153.444 105.358 151.786 105.698 150.285 106.506C149.59 106.961 148.993 107.592 148.541 108.352C148.086 109.109 147.789 109.977 147.67 110.885C147.406 112.806 147.417 114.765 147.706 116.681C147.968 118.648 148.321 120.597 148.762 122.52C149.228 124.476 149.587 126.461 149.838 128.465C149.964 129.478 150.044 130.498 150.077 131.52C150.167 132.628 150.018 133.745 149.639 134.77C149.484 135.069 149.267 135.318 149.006 135.495C148.747 135.674 148.452 135.775 148.15 135.791C147.847 135.806 147.547 135.736 147.273 135.585C147.001 135.434 146.764 135.21 146.586 134.93C146.062 134.075 145.603 133.17 145.213 132.227C144.459 130.445 143.616 128.716 142.686 127.047L143.168 127.344H143.153L142.84 127.346L142.668 127.039C141.402 124.451 139.324 122.513 136.859 121.62C136.357 121.371 135.794 121.335 135.271 121.516C134.748 121.699 134.299 122.087 134 122.614C133.371 123.844 132.977 125.216 132.851 126.636C132.67 128.135 132.664 129.644 132.588 131.157C132.575 132.692 132.624 134.214 132.716 135.747C132.903 138.808 133.223 141.858 133.676 144.883L134.143 148L131.999 145.964C130.033 143.9 127.726 142.308 125.213 141.287C124.144 140.874 122.978 140.94 121.948 141.472C120.985 142.138 120.254 143.167 119.877 144.382C119.43 145.661 119.276 147.049 119.429 148.415C119.499 149.108 119.64 149.79 119.847 150.447L120.544 152.738L123.334 161.898C125.213 167.997 127.024 174.124 128.818 180.258C129.728 183.332 130.596 186.402 131.583 189.331C132.6 192.283 133.779 195.174 135.038 198.024C137.574 203.724 140.514 209.196 143.466 214.692C144.924 217.476 146.458 220.14 147.77 223.195C147.94 223.615 148.088 224.046 148.211 224.485C148.268 224.76 148.319 225.039 148.362 225.314C148.396 225.567 148.393 225.73 148.409 225.943L148.559 228.358L148.855 233.188C149.672 246.07 150.361 258.963 151.001 271.879L150.697 271.91Z" fill="#43DFA8"/>
<path d="M169.06 127.729L162.135 109.192L163.56 108.572L169.06 127.729Z" fill="#43DFA8"/>
<path d="M394.719 64.4045C389.101 67.1377 383.246 69.4376 377.381 71.5454C371.489 73.6344 365.498 75.3447 359.44 76.6708C353.347 78.1024 347.143 78.8125 340.926 78.7899C337.77 78.756 334.625 78.3849 331.53 77.6823C328.34 76.9835 325.288 75.6273 322.522 73.6777L322.656 73.7662C318.005 71.1009 313.328 68.4901 308.701 65.7645L307.158 64.8566L308.086 63.3215C308.198 63.1143 308.339 62.9297 308.501 62.7752C308.578 62.6905 308.664 62.6132 308.752 62.5435C308.892 62.4343 309.057 62.2892 309.18 62.2139C309.438 62.0519 309.712 61.8522 309.956 61.7317C310.46 61.4454 310.956 61.2005 311.445 60.9876C312.429 60.5469 313.405 60.157 314.386 59.8236C316.341 59.1115 318.307 58.5728 320.273 58.0454C324.206 57.0038 328.152 56.1222 332.111 55.4008C336.068 54.6379 340.03 53.9673 343.998 53.3495C347.961 52.7034 351.934 52.1666 355.902 51.5958L355.366 51.9349L363.482 41.266C366.193 37.704 368.804 34.0874 371.607 30.5669C377.267 23.5994 383.823 17.6697 391.048 12.9851C394.674 10.6701 398.441 8.66022 402.319 6.9706C406.214 5.32807 410.201 3.98503 414.252 2.95092C422.368 0.579421 430.777 -0.187211 439.116 0.686796C447.559 1.88479 455.606 5.48629 462.527 11.1673C469.412 16.9294 475.02 24.4715 478.899 33.1833C480.821 37.5345 482.318 42.1174 483.366 46.8472L484.045 50.4204C484.234 51.6052 484.416 52.7806 484.572 53.9673C484.901 56.335 485.169 58.7141 485.374 61.1082C485.821 65.9152 485.923 70.7543 485.68 75.5783C485.452 80.4776 484.675 85.3223 483.366 89.99L482.84 91.8058L481.249 91.2577L459.749 83.8342L438.189 76.6256C431.003 74.2221 423.798 71.8901 416.563 69.7145C412.951 68.5937 409.327 67.537 405.691 66.5463C403.866 66.1111 402.05 65.5498 400.213 65.2183L397.46 64.6513L394.719 64.4045ZM394.644 64.026L397.516 64.0598L400.318 64.4272C402.196 64.6551 404.028 65.1071 405.888 65.4368C409.581 66.2147 413.266 67.0473 416.928 67.9759C424.253 69.8445 431.542 71.8656 438.816 73.9584C446.091 76.0454 453.323 78.3039 460.561 80.5473C467.791 82.8171 475.025 85.0624 482.227 87.4772L480.109 88.7449C482.525 80.1367 482.509 70.7015 481.781 61.515C481.589 59.2076 481.333 56.9058 481.015 54.6078C480.865 53.4588 480.688 52.3079 480.508 51.1701L479.876 47.8229C478.938 43.3794 477.582 39.0659 475.832 34.9614C472.28 26.7281 467.093 19.5684 460.69 14.0587C454.23 8.5943 446.704 5.02483 438.77 3.66484C430.714 2.57045 422.557 3.02061 414.631 4.99278C406.588 6.64096 398.823 9.74332 391.628 14.1887C384.433 18.668 377.934 24.4865 372.396 31.4051C367.01 38.4669 361.877 45.9054 356.675 53.2044L356.478 53.4813L356.137 53.5454C352.198 54.2819 348.255 54.9901 344.329 55.7944C340.399 56.5724 336.48 57.4031 332.582 58.3204C328.68 59.2302 324.796 60.2003 320.959 61.2909C319.043 61.8428 317.136 62.4437 315.281 63.1124C314.348 63.4345 313.436 63.8056 312.562 64.2011C312.118 64.397 311.698 64.6061 311.306 64.8321C311.089 64.9376 310.947 65.0601 310.765 65.1674C310.697 65.2145 310.633 65.2635 310.571 65.3162C310.537 65.3407 310.509 65.3652 310.528 65.3502C310.55 65.3087 310.473 65.4519 310.679 65.109L310.064 62.6641C314.72 65.3219 319.325 68.0946 323.957 70.8108L324.031 70.8541L324.091 70.8993C328.896 74.4952 335.04 75.5312 340.985 75.778C344.002 75.8627 347.022 75.7591 350.031 75.4709C353.052 75.2204 356.073 74.8003 359.081 74.2616C365.104 73.2275 371.062 71.6566 376.998 69.9688C382.941 68.2547 388.783 66.2618 394.644 64.026Z" fill="#43DFA8"/>
<path d="M431.856 11.1145C428.971 15.008 426.014 18.7941 423.044 22.5576L414.142 33.835C411.175 37.5872 408.232 41.362 405.312 45.1613C402.415 48.9832 399.548 52.8277 396.699 56.7626C398.813 52.255 401.239 47.949 403.95 43.886C406.616 39.7872 409.514 35.907 412.473 32.0982C415.472 28.3291 418.565 24.6635 421.791 21.1543C424.992 17.6093 428.351 14.2583 431.856 11.1145Z" fill="#43DFA8"/>
<path d="M447.266 12.9774C449.653 17.9521 451.764 23.0944 453.586 28.3743C455.438 33.6409 457.057 39.0093 458.439 44.4794C459.812 49.9551 460.881 55.5231 461.642 61.1514C462.4 66.7873 462.611 72.5004 462.272 78.1889C461.737 72.587 460.95 67.0209 459.912 61.5131C458.859 56.0298 457.621 50.5974 456.276 45.1951C454.947 39.7853 453.442 34.4302 451.94 29.0637C450.395 23.7141 448.871 18.3439 447.266 12.9774Z" fill="#43DFA8"/>
<path d="M356.02 52.5696C358.681 52.611 361.341 52.8257 363.982 53.21C366.617 53.551 369.228 54.0388 371.834 54.5568C374.433 55.1238 377.026 55.7209 379.596 56.4668C382.187 57.1751 384.741 58.051 387.245 59.0907C384.583 59.0512 381.923 58.8383 379.281 58.4541C376.647 58.1131 374.037 57.6234 371.431 57.1016C368.833 56.5327 366.24 55.9356 363.669 55.1897C361.079 54.4815 358.524 53.6056 356.02 52.5696Z" fill="#43DFA8"/>
<path d="M356.02 76.0623C356.062 78.6598 355.943 81.2536 355.782 83.8492C355.636 86.4712 355.311 89.0744 354.808 91.638C354.56 93.0225 354.104 94.3467 353.465 95.5541C352.889 96.5411 352.328 97.6958 351.769 98.7959C350.644 101.017 349.557 103.277 348.471 105.534C346.278 110.037 344.12 114.562 341.999 119.109C340.96 121.39 339.882 123.652 338.885 125.947C338.385 127.092 337.909 128.248 337.444 129.396C337.217 129.972 336.999 130.548 336.812 131.117C336.728 131.396 336.628 131.69 336.579 131.938C336.548 132.044 336.528 132.153 336.517 132.262C336.514 132.283 336.499 132.389 336.499 132.342C336.499 132.298 336.489 132.255 336.471 132.217C336.453 132.18 336.427 132.148 336.394 132.125L335.981 131.792C336.75 132.001 337.54 132.087 338.329 132.046C339.172 132.006 340.012 131.876 340.833 131.658C341.671 131.432 342.495 131.147 343.302 130.805C344.117 130.448 344.914 130.04 345.689 129.584L345.803 129.518L345.878 129.535C346.67 129.706 347.411 130.102 348.038 130.684C348.636 131.262 349.063 132.04 349.261 132.909C348.964 132.123 348.464 131.46 347.828 131.014C347.221 130.575 346.532 130.311 345.817 130.245L346.008 130.198C344.512 131.388 342.878 132.332 341.155 133.001C340.271 133.329 339.361 133.558 338.439 133.69C337.462 133.847 336.471 133.809 335.505 133.579L335.228 133.509L335.092 133.246C334.984 133.035 334.908 132.803 334.87 132.562C334.857 132.428 334.856 132.293 334.867 132.159C334.872 131.946 334.897 131.735 334.939 131.528C335.002 131.177 335.079 130.829 335.172 130.486C335.349 129.831 335.546 129.203 335.751 128.586C336.161 127.35 336.625 126.154 337.094 124.965C338.042 122.592 339.02 120.247 340.068 117.945C342.127 113.321 344.328 108.792 346.596 104.306C347.748 102.072 348.92 99.8545 350.129 97.6506C350.745 96.5449 351.349 95.4826 352.084 94.3637C352.65 93.3804 353.078 92.2992 353.351 91.1615C354.557 86.2094 355.447 81.1631 356.02 76.0623Z" fill="#43DFA8"/>
<path d="M361.697 139.362C355.209 127.872 345.848 132.909 345.848 132.909C345.848 132.909 342.232 189.977 364.401 191.529C381.272 192.712 395.789 180.945 405.996 168.272C411.284 161.677 414.629 153.337 415.561 144.435C416.945 131.437 419.026 111.801 419.554 106.136C420.364 97.4416 423.433 74.6759 434.424 76.0623C434.424 76.0623 457.404 76.326 445.509 121.972C445.509 121.972 442.265 150.541 463.352 147.124C463.352 147.124 459.026 132.841 464.703 121.972C470.381 111.104 477.846 97.3643 477.494 87.9311C477.494 87.9311 403.062 62.6621 394.68 64.2142C399.84 67.3429 403.989 72.2875 406.519 78.3245C409.05 84.3597 409.827 91.1691 408.74 97.7524C406.267 116.21 394.374 140.982 388.853 151.722C387.979 153.436 386.716 154.845 385.199 155.8C383.683 156.755 381.969 157.219 380.24 157.145C377.044 156.997 373.377 156.46 371.632 154.889C368.186 151.783 361.697 139.362 361.697 139.362Z" fill="#43DFA8"/>
<path d="M360.902 84.6177C362.482 83.2201 364.291 82.201 366.221 81.6209C368.184 80.9861 370.234 80.7902 372.263 81.0426C374.336 81.327 376.307 82.2293 377.981 83.6608C379.61 85.0566 380.859 86.9554 381.586 89.1347C380.22 87.6598 378.691 86.394 377.043 85.3674C375.461 84.4388 373.747 83.8436 371.982 83.6081C370.177 83.3783 368.355 83.3745 366.547 83.5968C364.701 83.8191 362.834 84.1675 360.902 84.6177Z" fill="#43DFA8"/>
<path d="M424.691 116.382C428.316 118.015 432.509 117.83 435.194 115.097C436.547 113.72 437.628 112.025 438.364 110.126C439.155 108.175 439.789 106.144 440.257 104.059C441.303 99.8564 441.921 95.5278 442.098 91.1615C442.182 88.9689 442.134 86.7745 441.956 84.5895C441.865 83.4913 441.728 82.3988 441.541 81.3176C441.456 80.7714 441.336 80.2383 441.21 79.7015C441.109 79.159 440.918 78.6447 440.642 78.187C441.321 79.0252 441.833 80.0236 442.138 81.1123C442.5 82.1747 442.804 83.2634 443.045 84.371C443.505 86.5993 443.778 88.8729 443.856 91.1596C444.001 95.7482 443.519 100.337 442.426 104.754C441.342 109.047 439.766 113.797 436.253 116.7C434.525 118.122 432.421 118.808 430.3 118.644C428.286 118.489 426.346 117.708 424.691 116.382Z" fill="#43DFA8"/>
<path d="M398.465 176.56C399.79 177.489 401.015 178.594 402.115 179.854C403.221 181.079 404.241 182.401 405.164 183.812C406.101 185.236 406.908 186.765 407.572 188.378C408.347 190.002 408.661 191.864 408.47 193.703C407.821 192.168 407.013 190.727 406.063 189.414C405.171 188.065 404.238 186.739 403.36 185.36C402.468 183.991 401.599 182.589 400.769 181.141C399.905 179.681 399.134 178.15 398.465 176.56Z" fill="#43DFA8"/>
<path d="M463.353 147.124C464.785 149.669 466.091 152.306 467.262 155.022C467.854 156.32 468.439 157.603 469.098 158.824C469.749 160.11 470.545 161.291 471.463 162.34C470.033 162.111 468.716 161.319 467.737 160.101C466.735 158.972 465.902 157.663 465.269 156.226C464.633 154.83 464.142 153.352 463.809 151.822C463.445 150.293 463.291 148.709 463.353 147.124Z" fill="#43DFA8"/>
<path d="M496.344 140.596C496.344 140.596 470.268 142.782 465.864 154.738L466.656 156.454L469.567 154.738C483.558 146.738 491.466 157.364 481.744 159.236C472.006 161.091 414.017 191.603 414.017 191.603C388.871 199.776 374.133 243.695 374.133 243.695C378.187 241.7 382.318 239.914 386.416 238.006C390.623 236.448 394.798 234.768 399.051 233.385C407.588 230.616 416.295 228.586 425.095 227.311C433.914 226.007 442.819 225.691 451.69 226.365C453.9 226.646 456.11 226.802 458.32 227.171C460.5 227.608 462.709 227.906 464.874 228.501C469.226 229.482 473.466 231.04 477.507 233.139C473.303 231.696 468.992 230.705 464.629 230.181C462.465 229.797 460.27 229.673 458.107 229.447C455.928 229.289 453.748 229.202 451.568 229.079C442.842 228.927 434.117 229.494 425.461 230.777L418.97 231.739L412.508 233.052L409.278 233.664L406.076 234.47C403.928 235.013 401.794 235.538 399.646 236.045C395.379 237.183 391.141 238.479 386.859 239.65C382.621 240.982 378.416 242.451 374.133 243.695C308.173 256.123 243.815 302.701 239.502 301.458C235.174 300.215 231.379 261.094 231.379 251.029C231.379 240.982 229.763 221.954 216.779 221.954C203.809 221.954 205.424 234.996 205.424 234.996C229.763 242.451 173.528 248.053 156.764 250.521C140 253.007 149.188 245.567 149.188 245.567C149.188 245.567 144.328 239.6 139.116 247.021C137.489 249.415 136.392 252.226 135.919 255.213C135.447 258.202 135.613 261.276 136.401 264.175C138.063 270.546 140.518 280.209 142.163 287.789C144.875 300.215 154.599 389.644 157.844 398.345C161.092 407.027 228.133 430.009 370.887 418.212C382.454 416.128 393.977 413.923 405.497 411.717C417.004 409.46 428.51 407.149 439.924 404.47C445.64 403.158 451.355 401.792 457.01 400.234C462.694 398.746 468.332 397.096 473.926 395.28C479.522 393.476 485.036 391.349 490.446 388.91C495.925 386.646 501.027 383.325 505.534 379.09C503.548 381.586 501.27 383.754 498.768 385.53C496.291 387.369 493.715 389.023 491.056 390.484C485.718 393.34 480.231 395.813 474.627 397.889C463.439 401.973 452.055 405.316 440.534 407.902C429.028 410.528 417.466 412.698 405.848 414.412C394.236 416.181 382.577 417.477 370.887 418.212C370.887 418.212 365.69 454.498 362.977 487.143H566.311C566.098 455.268 566.052 413.03 566.906 375.046C568.522 301.775 566.906 267.291 566.906 267.291C563.982 266.92 561.094 266.24 558.28 265.26C555.461 264.332 552.702 263.23 549.944 262.092C544.442 259.817 539.077 257.155 533.744 254.426C528.44 251.642 523.197 248.735 518.031 245.603C512.865 242.504 507.758 239.23 502.822 235.625C508.322 237.936 513.703 240.509 519.051 243.152C524.401 245.761 529.69 248.526 535.008 251.239L550.842 259.572C556.161 262.267 561.358 265.172 566.906 267.291C566.906 267.291 593.668 281.277 596.106 245.865C598.529 210.471 569.329 134.084 496.344 140.596ZM507.576 255.597C510.266 258.513 512.612 261.821 514.556 265.435C515.515 267.238 516.339 269.146 517.208 271.036C517.954 272.979 518.564 274.974 519.264 276.952C519.596 277.943 519.861 278.962 520.058 279.998L520.758 283.079C521.231 285.125 521.578 287.208 521.795 289.311L522.16 292.462L522.344 294.037L522.405 295.611L522.587 301.931L522.633 303.506L522.541 305.082L522.344 308.234C522.221 310.334 522.1 312.415 521.901 314.499C521.291 318.629 520.712 322.76 519.935 326.84C518.944 330.865 517.985 334.874 516.888 338.829C517.329 334.682 517.893 330.604 518.457 326.524C518.884 322.429 519.128 318.315 519.54 314.237L519.676 308.092L519.753 305.029L519.799 303.506L519.707 301.984L519.433 295.875L519.371 294.351L519.174 292.846L518.777 289.836C517.883 281.789 515.763 273.985 512.514 266.782C510.831 263.213 508.817 259.862 506.508 256.788C504.206 253.642 501.51 250.905 498.508 248.665C501.874 250.321 504.947 252.67 507.576 255.597ZM545.996 184.705C544.906 187.342 543.038 189.45 540.724 190.657C539.577 191.256 538.377 191.702 537.142 191.987C535.909 192.188 534.667 192.311 533.422 192.354C532.189 192.284 530.939 192.284 529.719 192.109L526.093 191.427C524.888 191.147 523.73 190.744 522.541 190.395L519.112 189.327C516.876 188.657 514.6 188.188 512.301 187.926C507.643 187.427 502.954 187.41 498.295 187.873C488.877 188.851 479.543 190.712 470.391 193.439C465.787 194.771 461.185 196.206 456.628 197.764C452.041 199.252 447.529 200.966 442.988 202.699C451.622 197.922 460.577 193.948 469.764 190.815C478.974 187.551 488.454 185.398 498.051 184.39C502.909 183.947 507.791 184.028 512.635 184.635C515.074 184.995 517.485 185.575 519.845 186.368L526.626 188.766L530.024 189.606C531.167 189.834 532.31 189.887 533.454 190.062C534.597 190.148 535.74 190.045 536.868 190.009C537.985 189.836 539.084 189.525 540.145 189.082C542.3 188.229 544.122 186.522 545.28 184.268C545.878 183.122 546.331 181.885 546.621 180.591C546.964 179.285 547.149 177.931 547.17 176.566C547.435 179.351 547.029 182.167 545.996 184.705Z" fill="#43DFA8"/>
<path d="M365.955 103.362C371.839 103.362 371.849 92.8586 365.955 92.8586C360.072 92.8586 360.062 103.362 365.955 103.362Z" fill="#43DFA8"/>
</svg>
