<svg width="304" height="255" viewBox="0 0 304 255" fill="none" xmlns="http://www.w3.org/2000/svg">
<path d="M181.555 63.4344C181.555 63.4344 179.006 61.8904 176.627 64.6347C176.627 64.6347 172.379 58.542 154.367 63.8181C154.367 63.8181 156.745 68.4079 158.445 68.4079C160.144 68.4079 155.217 76.2981 150.629 75.9544C150.629 75.9544 142.811 87.4465 148.759 98.595C154.621 109.583 158.832 113.073 164.647 105.946C164.825 105.725 165.024 105.521 165.24 105.339C166.913 103.947 174.315 98.1601 176.939 102.475C177.498 103.433 177.658 104.576 177.384 105.654C176.186 110.716 170.586 129.362 154.367 121.921C154.367 121.921 135.465 114.766 139.923 97.8175C140.399 96.0932 141.091 94.438 141.981 92.889C142.838 91.308 143.366 89.5656 143.534 87.7702C143.701 85.9757 143.503 84.1652 142.952 82.4499C142.269 80.0042 140.728 77.8942 138.616 76.5115C136.568 75.222 133.869 74.6459 131.825 78.2509C130.978 79.7497 130.532 81.446 130.529 83.1713C130.526 84.7514 130.817 86.6881 132.107 87.6179L130.529 90.7048C129.673 88.9444 128.576 87.3123 127.272 85.8575C125.089 83.6252 123.686 80.7356 123.277 77.6257C122.699 72.6932 123.395 65.328 129.218 56.7455C129.218 56.7455 137.034 40.9662 151.648 41.3088C166.262 41.6525 178.836 45.5971 181.555 63.4344Z" fill="black"/>
<path d="M157.086 84.016C159.624 83.4298 162.232 83.2134 164.832 83.3717C166.141 83.4379 167.439 83.6363 168.709 83.9659C170.005 84.2464 171.209 84.8536 172.209 85.7313C171.054 85.1902 169.822 84.8396 168.557 84.6933C167.308 84.5119 166.048 84.3797 164.776 84.3226C162.235 84.1633 159.681 84.1512 157.086 84.016Z" fill="black"/>
<path d="M181.553 83.7715C180.624 84.057 179.764 84.5349 179.028 85.1762C178.68 85.4657 178.396 85.8274 178.195 86.2362C177.994 86.644 177.881 87.0909 177.863 87.5467C177.931 88.4815 178.173 89.3953 178.578 90.2399L179.689 92.9972C180.518 94.8628 181 96.8667 181.111 98.9076C181.109 99.4456 181.011 99.9786 180.822 100.482C180.618 100.991 180.286 101.437 179.858 101.775C178.987 102.328 177.961 102.575 176.938 102.475C177.897 102.393 178.811 102.025 179.561 101.416C179.87 101.084 180.102 100.688 180.242 100.256C180.383 99.8233 180.428 99.3655 180.374 98.9136C180.301 97.9588 180.108 97.0169 179.802 96.1102C179.516 95.1824 179.175 94.2617 178.812 93.3449C178.462 92.4221 178.084 91.5033 177.745 90.5575C177.582 90.0806 177.417 89.6047 177.289 89.1007C177.13 88.5807 177.076 88.0327 177.131 87.4916C177.188 86.9526 177.361 86.4326 177.64 85.9697C177.919 85.5068 178.295 85.1111 178.743 84.8115C179.584 84.2444 180.548 83.8877 181.553 83.7715Z" fill="black"/>
<path d="M181.554 63.4343C181.873 65.357 182.109 67.2897 182.264 69.2325C182.442 71.1732 182.551 73.1189 182.593 75.0707C182.622 77.0214 182.594 78.9772 182.443 80.933C182.354 82.9268 181.913 84.8896 181.139 86.7261C181.129 86.7491 181.115 86.7702 181.097 86.7892C180.501 87.4375 179.941 88.1188 179.42 88.8302C179.162 89.1868 178.932 89.5636 178.733 89.9563C178.512 90.34 178.423 90.7859 178.481 91.2257C178.345 90.7839 178.37 90.307 178.551 89.8812C178.707 89.4523 178.897 89.0365 179.119 88.6378C179.563 87.8433 180.076 87.0908 180.652 86.3885L180.609 86.4506C180.939 85.5739 181.158 84.6581 181.263 83.7253C181.409 82.7845 181.469 81.8247 181.54 80.8668C181.652 78.9462 181.672 77.0124 181.682 75.0787C181.682 71.2083 181.598 67.3298 181.554 63.4343Z" fill="black"/>
<path d="M171.359 97.051C171.18 97.4237 171.035 97.8115 170.926 98.2112C170.816 98.58 170.791 98.9697 170.856 99.3494C170.908 99.7262 171.071 100.078 171.323 100.359C171.59 100.671 171.887 100.956 172.209 101.209C172.003 101.148 171.801 101.075 171.603 100.99C171.411 100.883 171.229 100.757 171.061 100.614C170.711 100.307 170.475 99.8895 170.39 99.4286C170.331 98.9727 170.398 98.5088 170.586 98.089C170.76 97.6872 171.025 97.3326 171.359 97.051Z" fill="black"/>
<path d="M132.105 87.6179C132.693 88.3634 133.163 89.196 133.496 90.0877C133.675 90.5425 133.804 91.0154 133.881 91.4984C133.923 91.7519 133.94 92.0084 133.931 92.2648L133.926 92.4622L133.938 92.5694C133.933 92.6396 133.949 92.7087 133.982 92.7708C134.128 93.0844 134.385 93.3309 134.702 93.4622C135.079 93.6565 135.478 93.8088 135.887 93.915C136.761 94.1525 137.658 94.2847 138.563 94.3068C137.669 94.6605 136.702 94.7767 135.752 94.6464C135.256 94.5953 134.771 94.4701 134.312 94.2737C134.042 94.1675 133.795 94.0092 133.587 93.8068C133.377 93.6044 133.21 93.362 133.094 93.0944C133.033 92.9432 133.003 92.7819 133.007 92.6185L133.003 92.3781L133.01 92.2278C133.021 92.0204 133.016 91.812 132.997 91.6056C132.959 91.1657 132.891 90.7299 132.793 90.3001C132.6 89.4184 132.347 88.5327 132.105 87.6179Z" fill="black"/>
<path d="M130.529 90.7048C130.149 92.0925 129.615 93.4321 128.935 94.6965C128.27 95.98 127.466 97.1863 126.54 98.2924C125.613 99.4196 124.513 100.39 123.282 101.167C122.048 101.938 120.637 102.372 119.186 102.424C120.514 102.022 121.761 101.387 122.871 100.55C123.958 99.7061 124.948 98.7413 125.821 97.6752C126.719 96.6102 127.548 95.488 128.305 94.3178C129.066 93.1405 129.823 91.9482 130.529 90.7048Z" fill="black"/>
<path d="M142.98 130.839C144.055 130.364 145.07 129.764 146.006 129.053C146.935 128.352 147.817 127.59 148.645 126.769C149.498 125.975 150.264 125.085 151.058 124.214L152.215 122.866C152.591 122.406 152.968 121.942 153.382 121.498C153.145 122.054 152.87 122.592 152.596 123.132C152.286 123.648 151.98 124.173 151.638 124.672C150.948 125.674 150.165 126.606 149.299 127.455C148.428 128.312 147.455 129.058 146.405 129.674C145.363 130.313 144.193 130.711 142.98 130.839Z" fill="black"/>
<path d="M125.98 97.9828C125.135 96.7184 124.088 95.6022 122.884 94.6805C122.633 94.457 122.329 94.3027 122.003 94.2326C121.675 94.1625 121.336 94.1795 121.016 94.2807C120.453 94.6674 120.048 95.2476 119.879 95.9138C119.646 96.6242 119.48 97.3546 119.379 98.096C119.329 98.4637 119.284 98.8475 119.251 99.2022C119.252 99.5398 119.282 99.9366 119.316 100.305C119.462 101.818 119.74 103.314 120.146 104.778C120.894 107.756 122.055 110.611 123.597 113.259C125.159 115.907 127.026 118.358 129.161 120.56C130.232 121.653 131.345 122.705 132.473 123.731C133.647 124.708 134.767 125.757 135.988 126.653C136.577 127.134 137.226 127.524 137.842 127.962C138.493 128.34 139.117 128.77 139.796 129.091C141.106 129.809 142.5 130.361 143.945 130.732C146.832 131.505 149.899 131.18 152.564 129.819C155.242 128.376 157.491 126.24 159.081 123.63C159.086 123.619 159.096 123.611 159.108 123.607C159.12 123.603 159.133 123.604 159.145 123.61C159.155 123.616 159.163 123.626 159.167 123.638C159.17 123.65 159.17 123.662 159.165 123.674C157.782 126.508 155.609 128.872 152.912 130.476C151.531 131.267 150.013 131.781 148.438 131.99C146.859 132.179 145.26 132.075 143.716 131.687C142.185 131.32 140.71 130.742 139.336 129.968C138.633 129.617 137.995 129.161 137.329 128.754C136.704 128.288 136.043 127.869 135.449 127.366C134.206 126.422 133.118 125.321 131.966 124.287C131.379 123.783 130.882 123.182 130.343 122.627C129.824 122.053 129.262 121.521 128.781 120.913C126.769 118.566 124.942 116.064 123.316 113.43C121.661 110.794 120.343 107.96 119.393 104.992C118.93 103.49 118.627 101.942 118.49 100.375C118.464 99.9746 118.44 99.5999 118.449 99.1641C118.494 98.7513 118.549 98.3676 118.612 97.9728C118.737 97.1853 118.934 96.4108 119.2 95.6593C119.32 95.2445 119.52 94.8578 119.789 94.5222C120.058 94.1865 120.392 93.908 120.768 93.7036C121.192 93.5363 121.661 93.5263 122.091 93.6765C122.482 93.8118 122.848 94.0142 123.171 94.2737C124.358 95.2946 125.339 96.538 126.061 97.9337C126.064 97.9397 126.066 97.9457 126.067 97.9518C126.068 97.9578 126.067 97.9638 126.065 97.9698C126.064 97.9758 126.061 97.9818 126.057 97.9868C126.053 97.9918 126.049 97.9958 126.043 97.9988C126.032 98.0039 126.02 98.0059 126.009 98.0029C125.997 97.9998 125.987 97.9928 125.98 97.9828Z" fill="black"/>
<path d="M82.2344 110.944C83.4722 111.298 84.5949 111.976 85.4903 112.909C86.4124 113.826 87.15 114.915 87.6622 116.117C88.1764 117.31 88.4643 118.59 88.5139 119.891C88.5387 120.53 88.5059 121.171 88.4166 121.806C88.3084 122.435 88.1436 123.053 87.9242 123.652C87.7039 123.032 87.6046 122.434 87.4428 121.85C87.2691 121.269 87.1649 120.69 86.9723 120.137C86.6646 119.039 86.2864 117.963 85.8417 116.914C85.396 115.871 84.8738 114.862 84.2812 113.896C83.6608 112.87 82.9769 111.885 82.2344 110.944Z" fill="black"/>
<path d="M86.5648 134.956C86.9479 139.403 87.1346 143.85 87.2517 148.297C87.3817 152.742 87.3956 157.188 87.3877 161.633C87.342 166.078 87.2715 170.522 87.0849 174.967C86.9112 179.41 86.667 183.854 86.2253 188.296C85.8401 183.849 85.6525 179.402 85.5354 174.957C85.4063 170.51 85.3924 166.065 85.4034 161.62C85.451 157.175 85.5215 152.73 85.7081 148.287C85.8828 143.842 86.126 139.398 86.5648 134.956Z" fill="black"/>
<path d="M177.442 105.572C181.077 107.869 184.645 110.26 188.147 112.747C189.9 113.989 191.64 115.252 193.363 116.539L195.929 118.517C196.379 118.858 196.803 119.232 197.196 119.637L197.807 120.28L198.32 120.937C199.65 122.667 200.863 124.487 201.951 126.381C203.047 128.249 204.114 130.129 205.153 132.021C207.203 135.822 209.315 139.581 211.489 143.297C212.576 145.157 213.683 147.004 214.811 148.839L216.5 151.59C217 152.49 217.594 153.332 218.273 154.104C218.992 154.815 219.849 155.521 220.594 156.407C221.477 157.336 222.008 158.547 222.095 159.831C222.029 161.146 221.461 162.385 220.51 163.288C220.104 163.702 219.677 164.095 219.23 164.466C218.831 164.79 218.443 165.132 218.063 165.484C217.299 166.192 216.597 166.935 215.881 167.736C215.154 168.547 214.4 169.335 213.636 170.113C212.092 171.668 210.453 173.125 208.729 174.473C206.97 175.848 205.056 177.006 203.026 177.923C201.962 178.377 200.843 178.69 199.699 178.852C198.497 179.033 197.27 178.924 196.116 178.539C195.933 178.483 195.776 178.359 195.677 178.194L195.671 178.183C194.925 176.937 194.109 175.694 193.284 174.479C192.459 173.258 191.597 172.065 190.695 170.902C189.788 169.749 188.82 168.646 187.794 167.6C186.806 166.523 185.597 165.678 184.25 165.125L184.243 165.123C184.219 165.114 184.2 165.097 184.189 165.075C184.177 165.052 184.174 165.027 184.181 165.002C184.187 164.978 184.203 164.957 184.224 164.944C184.245 164.93 184.271 164.926 184.296 164.931C185.767 165.313 187.127 166.043 188.265 167.06C189.432 168.011 190.525 169.052 191.535 170.173C193.566 172.392 195.432 174.76 197.119 177.256L196.672 176.902C198.563 177.29 200.529 177.002 202.23 176.086C204.088 175.191 205.835 174.078 207.435 172.769C209.091 171.471 210.675 170.081 212.179 168.606C212.94 167.872 213.692 167.127 214.421 166.356C215.158 165.573 215.955 164.773 216.786 164.044C217.204 163.677 217.632 163.32 218.075 162.98C218.476 162.642 218.856 162.354 219.192 162.01C219.842 161.445 220.267 160.66 220.387 159.803C220.335 158.913 219.984 158.067 219.39 157.407C218.783 156.618 218.014 155.902 217.269 155.044C217.072 154.819 216.889 154.584 216.718 154.338L216.288 153.603L215.514 152.169L214 149.308C213.001 147.397 211.981 145.499 210.94 143.616C208.851 139.849 206.649 136.146 204.265 132.564C201.901 128.988 199.502 125.367 196.941 122.063L196.457 121.452L195.952 120.931C195.606 120.557 195.23 120.212 194.829 119.899L192.333 117.898L187.295 113.904C183.929 111.245 180.605 108.522 177.324 105.735C177.306 105.719 177.293 105.696 177.29 105.671C177.287 105.645 177.294 105.62 177.309 105.599C177.324 105.578 177.345 105.564 177.37 105.559C177.395 105.554 177.42 105.559 177.442 105.573V105.572Z" fill="black"/>
<path d="M190.731 137.929C188.994 144.52 187.352 151.128 185.982 157.761C185.276 161.049 184.785 164.379 184.508 167.732C184.413 169.344 184.404 171.124 184.265 172.85C184.128 174.608 183.836 176.351 183.393 178.059C182.35 181.433 180.678 184.575 178.467 187.317C177.447 188.691 176.364 190.021 175.352 191.356C174.864 192.02 174.37 192.678 173.932 193.387C173.463 194.071 173.039 194.792 172.616 195.514C170.954 198.447 169.467 201.478 168.166 204.59C166.791 207.69 165.607 210.876 164.449 214.081C165.923 207.38 168.211 200.89 171.262 194.755C172.049 193.204 172.951 191.716 173.961 190.301C174.961 188.905 175.987 187.571 176.954 186.192C178.986 183.613 180.522 180.672 181.481 177.522C181.907 175.936 182.192 174.315 182.334 172.677C182.492 171.007 182.487 169.377 182.639 167.592C182.993 164.158 183.607 160.757 184.476 157.418C186.143 150.792 188.232 144.283 190.731 137.929Z" fill="black"/>
<path d="M265.619 227.183C265.225 227.184 264.846 227.026 264.566 226.744C264.287 226.463 264.13 226.08 264.129 225.681C264.129 225.282 264.286 224.901 264.565 224.618C264.844 224.337 265.222 224.178 265.617 224.177L300.278 224.131H300.28C300.476 224.131 300.669 224.17 300.85 224.245C301.031 224.321 301.196 224.432 301.334 224.571C301.473 224.71 301.582 224.877 301.657 225.058C301.732 225.24 301.77 225.436 301.77 225.633C301.77 225.831 301.733 226.026 301.657 226.209C301.583 226.392 301.474 226.557 301.336 226.696C301.197 226.836 301.033 226.947 300.852 227.023C300.671 227.098 300.478 227.137 300.282 227.137L265.621 227.183H265.619Z" fill="black"/>
<path d="M45.1215 226.186L1.41797 226.603L1.44576 229.609L45.1503 229.192L45.1215 226.186Z" fill="black"/>
<path d="M166.261 90.4193C166.628 90.4073 166.976 90.251 167.231 89.9845C167.486 89.7169 167.629 89.3613 167.629 88.9906C167.629 88.6198 167.486 88.2631 167.231 87.9966C166.976 87.7301 166.628 87.5738 166.261 87.5608C165.894 87.5738 165.546 87.7301 165.291 87.9966C165.036 88.2631 164.893 88.6198 164.893 88.9906C164.893 89.3613 165.036 89.7169 165.291 89.9845C165.546 90.251 165.894 90.4073 166.261 90.4193Z" fill="black"/>
<path d="M203.738 238.587C208.743 242.031 214.374 244.437 220.306 245.669C223.252 246.242 226.254 246.459 229.251 246.316C232.241 246.153 235.202 245.646 238.078 244.804C243.82 243.039 249.239 240.337 254.117 236.806C255.342 235.971 256.499 235.041 257.578 234.022C258.656 232.991 259.671 231.895 260.618 230.741C262.511 228.432 264.15 225.921 265.504 223.253L265.408 223.657V223.648L265.409 223.626C265.411 223.494 265.443 223.363 265.503 223.245C266.673 220.925 267.629 218.503 268.358 216.007C269.084 213.499 269.553 210.923 269.757 208.32L269.761 208.265L269.767 208.23C269.781 208.179 269.764 208.203 269.781 208.296L269.772 208.139C270.18 202.867 269.446 197.57 267.621 192.615C265.757 187.667 262.87 183.178 259.154 179.443C255.48 175.773 251.115 172.884 246.317 170.945C241.517 169.006 236.383 168.059 231.215 168.157C226.048 168.255 220.951 169.398 216.228 171.517C211.505 173.637 207.252 176.69 203.718 180.497C200.173 184.319 197.416 188.81 195.602 193.715C193.795 198.682 192.956 203.956 193.129 209.244C193.13 209.258 193.128 209.271 193.123 209.284C193.118 209.297 193.111 209.308 193.101 209.318C193.093 209.328 193.082 209.336 193.07 209.341C193.057 209.347 193.044 209.35 193.031 209.35C193.005 209.35 192.979 209.341 192.961 209.323C192.942 209.306 192.929 209.282 192.926 209.256C192.293 203.892 192.802 198.454 194.416 193.304C196.042 188.099 198.742 183.301 202.338 179.226C205.944 175.119 210.365 171.823 215.313 169.549C220.271 167.282 225.653 166.108 231.096 166.107C236.504 166.053 241.864 167.149 246.825 169.323C251.786 171.496 256.238 174.7 259.892 178.725C263.51 182.698 266.332 187.34 268.202 192.395C270.068 197.46 270.969 202.835 270.859 208.238L270.851 208.08C270.873 208.202 270.871 208.327 270.845 208.447L270.855 208.358C270.783 211.065 270.43 213.758 269.805 216.392C269.187 219.038 268.283 221.606 267.108 224.051L267.202 223.648V223.657C267.204 223.793 267.174 223.925 267.116 224.046L267.107 224.063C265.732 226.884 264.014 229.519 261.992 231.908C260.985 233.104 259.909 234.237 258.767 235.302C257.606 236.355 256.368 237.319 255.065 238.186C250.01 241.769 244.386 244.452 238.434 246.12C232.455 247.759 226.172 247.914 220.12 246.571C214.149 245.135 208.533 242.475 203.622 238.757C203.6 238.741 203.586 238.717 203.581 238.691C203.577 238.664 203.583 238.637 203.598 238.615C203.613 238.593 203.636 238.578 203.662 238.572C203.688 238.567 203.715 238.573 203.738 238.587Z" fill="black"/>
<path d="M212.494 172.389C212.221 173.126 211.991 173.873 211.761 174.616C211.535 175.362 211.314 176.106 211.116 176.856C210.894 177.598 210.716 178.353 210.54 179.11L209.965 181.357L209.994 181.169C209.992 181.254 209.976 181.338 209.946 181.418C209.911 181.515 209.855 181.605 209.785 181.68C209.713 181.755 209.628 181.815 209.532 181.857C209.438 181.898 209.336 181.92 209.234 181.921L209.956 181.366C209.538 183.542 209.022 185.683 208.583 187.846C208.179 190.016 207.773 192.187 207.434 194.373C207.08 196.557 206.729 198.744 206.432 200.947C206.095 203.145 205.775 205.353 205.396 207.567C205.198 205.33 205.132 203.084 205.2 200.84C205.237 198.593 205.39 196.35 205.656 194.12C205.934 191.891 206.269 189.664 206.754 187.467C206.975 186.364 207.272 185.276 207.577 184.192C207.884 183.109 208.167 182.019 208.498 180.946L209.222 180.391C209.122 180.392 209.022 180.413 208.93 180.454C208.838 180.494 208.754 180.554 208.685 180.627C208.615 180.701 208.562 180.787 208.527 180.882C208.498 180.959 208.482 181.041 208.48 181.124L208.509 180.935C209.058 179.452 209.564 177.965 210.214 176.524C210.847 175.078 211.61 173.694 212.494 172.389Z" fill="black"/>
<path d="M251.023 172.389C252.376 174.739 253.494 177.22 254.36 179.794C254.84 181.069 255.181 182.383 255.596 183.68C255.964 184.988 256.27 186.313 256.608 187.631C257.784 192.942 258.541 198.34 258.869 203.772C259.209 209.193 259.214 214.63 258.882 220.051C258.717 222.757 258.417 225.454 258.161 228.147C257.749 230.828 257.391 233.509 256.919 236.173C256.962 233.46 257.133 230.769 257.228 228.074L257.395 219.998C257.381 218.653 257.374 217.309 257.384 215.966L257.391 213.951L257.321 211.938L257.215 207.913L256.968 203.898C256.653 198.546 256.047 193.216 255.155 187.93L254.39 183.984C254.082 182.683 253.835 181.358 253.471 180.07C252.855 177.449 252.037 174.881 251.023 172.389Z" fill="black"/>
<path d="M230.889 225.321C231.502 224.698 232.023 223.99 232.437 223.217C232.427 224.118 232.407 225.01 232.388 225.912C232.259 232.424 232.01 238.937 231.643 245.449C231.276 238.937 231.028 232.424 230.899 225.912C230.899 225.711 230.889 225.521 230.889 225.321Z" fill="black"/>
<path d="M231.156 218.879C231.156 218.879 231.811 218.088 232.526 217.046C232.516 218.058 232.506 219.08 232.486 220.092C232.142 219.588 231.686 219.173 231.156 218.879Z" fill="black"/>
<path d="M232.595 205.402V207.326L232.565 212.045C231.938 212.097 231.319 212.221 230.719 212.416C230.709 210.713 230.699 209.019 230.689 207.326V205.402C230.729 192.688 230.908 179.983 231.642 167.269C232.367 179.983 232.556 192.688 232.595 205.402Z" fill="black"/>
<path d="M196.438 190.078C201.952 187.604 207.724 185.762 213.645 184.585C219.575 183.362 225.607 182.716 231.659 182.655C234.686 182.563 237.71 182.808 240.731 182.978C242.236 183.148 243.735 183.368 245.235 183.561C245.985 183.668 246.737 183.746 247.483 183.876L249.702 184.357C255.623 185.556 261.378 187.478 266.84 190.078C265.39 189.661 263.952 189.228 262.525 188.778L260.383 188.114C259.667 187.905 258.925 187.777 258.198 187.605L253.844 186.582C252.381 186.3 250.905 186.086 249.439 185.835L247.24 185.471C246.503 185.373 245.76 185.314 245.022 185.234C243.543 185.089 242.067 184.917 240.587 184.795C237.617 184.685 234.653 184.456 231.68 184.577C225.728 184.629 219.789 185.124 213.908 186.057L209.502 186.828C208.044 187.139 206.573 187.416 205.119 187.756C202.193 188.384 199.308 189.185 196.438 190.078Z" fill="black"/>
<path d="M230.758 228.568L239.887 227.379C242.908 226.949 245.922 226.492 248.915 225.944C251.914 225.424 254.9 224.811 257.882 224.165C259.358 223.79 260.848 223.451 262.346 223.118L263.475 222.884L264.585 222.592C265.328 222.402 266.08 222.224 266.841 222.055C266.157 222.412 265.465 222.759 264.764 223.095C264.069 223.442 263.357 223.75 262.63 224.019C261.185 224.567 259.731 225.11 258.264 225.616C255.309 226.552 252.296 227.294 249.247 227.838C243.15 228.974 236.923 229.219 230.758 228.568Z" fill="black"/>
<path d="M192.918 206.365C194.873 206.245 196.829 206.145 198.785 206.065C198.25 206.208 197.727 206.385 197.216 206.596C195.777 206.525 194.347 206.445 192.918 206.365Z" fill="black"/>
<path d="M270.365 206.365C263.913 206.736 257.461 206.986 251.009 207.117C244.864 207.257 238.729 207.306 232.595 207.327H230.689C229.915 207.327 229.15 207.317 228.376 207.317C228.456 206.485 228.049 205.934 226.897 205.874C225.884 205.846 224.892 206.179 224.098 206.816C223.919 206.956 223.721 207.107 223.492 207.277C217.467 207.237 211.444 207.12 205.426 206.926C205.401 206.71 205.335 206.501 205.228 206.312C205.123 206.123 204.98 205.956 204.811 205.824C213.437 205.524 222.063 205.433 230.689 205.403H232.595C238.729 205.423 244.864 205.473 251.009 205.614C257.461 205.734 263.913 205.984 270.365 206.365Z" fill="black"/>
<path d="M209.237 181.146C209.237 181.148 209.236 181.149 209.236 181.15C209.235 181.152 209.235 181.153 209.234 181.154C209.233 181.155 209.232 181.155 209.23 181.156C209.229 181.156 209.228 181.157 209.227 181.156C208.308 182.908 207.592 184.76 207.093 186.676C207.083 186.696 207.083 186.726 207.073 186.746C206.329 189.642 206.696 190.173 205.713 193.028C205.157 194.642 204.661 195.573 204.939 196.907C205.203 197.746 205.539 198.56 205.942 199.341C206.061 199.591 206.18 199.863 206.319 200.163C207.004 201.686 207.173 202.046 207.024 202.507C206.835 203.068 206.398 203.138 205.594 203.629C205.31 203.796 205.041 203.988 204.79 204.201C204.313 204.562 203.874 204.971 203.48 205.423C200.504 205.391 197.574 206.163 194.993 207.658C194.377 208.008 193.712 208.358 192.997 208.729H192.988C192.958 208.298 192.948 207.868 192.928 207.437C192.918 207.076 192.918 206.726 192.918 206.365C192.91 200.742 194.109 195.185 196.432 190.073L196.442 190.063H196.452C197.385 187.993 198.502 186.011 199.787 184.142C204.105 179.894 208.761 177.689 210.309 177.699C210.476 177.684 210.644 177.734 210.776 177.84C211.123 178.19 210.289 179.152 209.237 181.146Z" fill="black"/>
<path d="M270.366 206.365C270.366 206.696 270.366 207.026 270.346 207.357C270.346 207.638 270.326 207.908 270.316 208.189C270.316 208.239 270.306 208.289 270.306 208.339C270.304 208.629 270.288 208.921 270.257 209.211C269.906 214.217 268.595 219.107 266.395 223.608C266.368 223.625 266.337 223.639 266.306 223.648V223.658C266.046 223.783 265.767 223.864 265.482 223.899C265.148 223.933 264.811 223.895 264.492 223.789C264.174 223.681 263.882 223.507 263.636 223.278C263.626 223.268 263.616 223.248 263.596 223.238C262.792 222.346 263.437 221.103 263.179 219.24C262.961 217.697 262.157 216.605 260.559 214.431C259.863 213.432 259.085 212.494 258.236 211.625C257.65 211.054 257.104 210.703 256.717 210.864C256.231 211.084 256.082 212.126 256.26 212.888C256.528 214.03 257.442 214.13 257.64 215.052C257.908 216.264 256.687 217.667 255.645 218.308C255.062 218.703 254.389 218.939 253.689 218.993C252.991 219.048 252.289 218.919 251.654 218.619C250.225 217.777 250.265 215.984 249.499 215.984C248.894 215.994 248.358 217.116 248.268 217.997C248.199 218.549 248.292 219.109 248.538 219.607C248.784 220.105 249.17 220.517 249.648 220.793C250.631 221.214 251.266 220.342 252.418 220.793C252.763 220.907 253.072 221.11 253.314 221.383C253.556 221.656 253.723 221.987 253.798 222.346C253.847 223.298 252.557 224.039 250.879 224.981C248.963 226.053 248.368 226.003 246.114 227.155C245.896 227.265 245.698 227.365 245.509 227.466C244.628 227.874 243.802 228.393 243.047 229.009C241.499 230.291 241.648 230.862 240.129 232.115C239.137 233.043 237.917 233.687 236.595 233.978C235.394 234.179 235.146 233.808 233.061 233.668C232.59 233.633 232.115 233.623 231.642 233.638C230.729 233.65 229.818 233.71 228.912 233.818C227.852 233.923 226.799 234.107 225.765 234.369C231.086 231.634 231.79 227.496 229.577 226.514C229.577 226.514 235.87 221.695 231.155 218.879C231.155 218.879 238.779 209.722 230.172 212.587C229.458 212.835 228.777 213.174 228.147 213.599C227.879 213.769 227.573 213.98 227.224 214.2L226.202 211.575V211.565C228.217 208.8 229.567 206.004 226.897 205.874C225.883 205.846 224.893 206.18 224.097 206.816C223.482 207.287 222.599 207.948 221.487 208.71L219.233 206.365C218.719 205.519 218.404 204.567 218.31 203.58C218.27 202.49 218.453 201.404 218.849 200.39C219.246 199.376 219.847 198.456 220.613 197.688C222.029 196.175 223.838 195.098 225.835 194.582C227.401 193.971 229.091 193.758 230.758 193.961C231.036 194.011 231.334 194.071 231.642 194.152C232.614 194.382 233.617 194.723 234.133 194.893C235.012 195.295 235.946 195.558 236.903 195.675C238.153 195.735 238.502 195.354 239.047 195.675C239.732 196.055 239.623 196.857 240.129 198.771C240.635 200.664 241.052 202.267 242.124 202.648C242.928 202.928 243.365 202.267 244.278 202.648C244.874 202.898 244.874 203.259 245.807 204.201C246.631 205.023 247.048 205.433 247.653 205.594C248.231 205.726 248.834 205.679 249.384 205.456C249.934 205.235 250.404 204.849 250.73 204.351C250.849 204.141 251.068 203.7 250.879 201.876C250.651 199.572 250.542 198.42 249.807 197.688C248.914 196.797 248.219 197.448 246.114 196.757C243.702 195.965 243.881 194.863 241.201 193.811C239.404 193.11 238.928 193.44 237.518 192.569C236.377 191.867 234.927 190.565 235.205 189.773C235.513 188.932 237.498 189.583 238.282 188.381C238.898 187.449 238.044 186.537 238.739 185.275C239.146 184.553 239.99 183.862 240.585 184.042C241.241 184.233 240.992 185.305 241.816 186.677C242.58 187.85 243.718 188.724 245.042 189.152C246.045 189.523 247.286 189.984 248.268 189.312C249.142 188.721 249.628 187.369 249.192 186.677C248.626 185.786 246.909 186.547 246.422 185.745C246.343 185.553 246.302 185.347 246.304 185.138C246.305 184.93 246.35 184.724 246.432 184.533C246.561 184.089 246.795 183.685 247.116 183.354C247.436 183.023 247.832 182.778 248.268 182.639C248.775 182.559 249.291 182.75 252.269 185.275C252.428 185.415 252.587 185.545 252.726 185.665L252.735 185.675C254.314 187.028 254.602 187.328 255.187 187.298C255.382 187.285 255.573 187.242 255.753 187.168C256.068 187.035 256.357 186.849 256.608 186.617C257.31 185.926 257.869 185.102 258.256 184.192C258.762 183.01 258.563 182.529 258.871 182.329C259.586 181.868 262.137 183.411 264.817 186.186C265.567 187.44 266.243 188.738 266.842 190.074C268.79 194.342 269.953 198.932 270.277 203.62C270.306 204.071 270.326 204.532 270.346 204.992C270.356 205.443 270.366 205.904 270.366 206.365Z" fill="black"/>
<path d="M157.086 0.108643C157.641 2.38802 158.068 4.69646 158.364 7.02494C158.693 9.33738 158.904 11.6588 159.094 13.9823C159.247 16.3078 159.375 18.6353 159.387 20.9717C159.433 23.3183 159.345 25.6658 159.125 28.0023C158.567 25.7239 158.138 23.4144 157.842 21.087C157.515 18.7735 157.303 16.452 157.116 14.1296C156.966 11.8031 156.838 9.47565 156.826 7.13915C156.781 4.79264 156.868 2.44513 157.086 0.108643Z" fill="black"/>
<path d="M171.396 29.926C171.927 27.5505 172.585 25.206 173.368 22.9025C174.116 20.5981 174.972 18.3378 175.85 16.0864C176.761 13.8481 177.696 11.6198 178.737 9.43565C179.754 7.2264 180.891 5.07627 182.142 2.99426C181.615 5.37083 180.958 7.71635 180.175 10.0198C179.425 12.3232 178.569 14.5835 177.69 16.8339C176.776 19.0712 175.842 21.2994 174.799 23.4836C173.782 25.6919 172.646 27.843 171.396 29.926Z" fill="black"/>
<path d="M135.334 5.3988C136.563 7.2704 137.681 9.21514 138.682 11.22C139.707 13.1998 140.626 15.2277 141.524 17.2636C142.388 19.3145 143.23 21.3755 143.964 23.4826C144.734 25.5896 145.379 27.7407 145.894 29.9259C144.663 28.0554 143.544 26.1116 142.544 24.1058C141.519 22.1249 140.6 20.0981 139.705 18.0611C138.842 16.0092 138.001 13.9482 137.267 11.8412C136.497 9.73413 135.852 7.583 135.334 5.3988Z" fill="black"/>
<path d="M42.8843 168.285C41.9969 168.058 41.0926 167.897 40.1804 167.808C39.7486 167.753 39.3108 167.797 38.8979 167.937C38.5077 168.081 38.6308 168.512 38.8472 168.889C39.3505 169.641 39.954 170.32 40.6409 170.906C41.31 171.527 42.0188 172.119 42.7394 172.674C42.8049 172.725 42.8466 172.799 42.8575 172.88C42.8685 172.961 42.8466 173.044 42.798 173.109C42.7642 173.152 42.7206 173.185 42.6709 173.206C42.6203 173.228 42.5667 173.236 42.5131 173.229C40.635 173.019 38.8651 172.234 37.4416 170.979C36.72 170.351 36.1214 169.592 35.6757 168.741C35.4404 168.299 35.2727 167.824 35.1784 167.332C35.1228 167.047 35.1287 166.752 35.1952 166.469C35.2439 166.286 35.3332 166.118 35.4553 165.976C35.4931 165.906 35.5288 165.883 35.5854 165.775C36.4132 164.253 37.12 162.533 37.8397 160.882L39.952 155.861C40.6598 154.183 41.3775 152.526 41.985 150.827C42.6094 149.129 43.1166 147.409 43.7043 145.674L45.4265 140.482C46.0122 138.756 46.7299 137.077 47.3751 135.375C49.955 128.55 53.2586 122.027 57.2282 115.92C59.2323 112.855 61.5978 110.048 64.274 107.56C64.6115 107.251 64.9401 106.932 65.2865 106.63L66.3685 105.781C67.0872 105.205 67.8386 104.673 68.6209 104.19C70.1912 103.154 71.9274 102.399 73.7519 101.961L73.6496 101.985C76.7527 101.052 79.952 100.491 83.1841 100.311C86.3804 100.05 89.5827 99.9657 92.7781 99.9627C95.9744 99.9637 99.1688 100.027 102.36 100.151C105.551 100.303 108.734 100.497 111.922 100.759L111.588 100.873C112.821 99.599 113.958 98.2323 114.99 96.7866L116.583 94.6044C117.093 93.8068 117.761 93.1255 118.547 92.6025C120.178 91.6647 122.097 91.3722 123.93 91.7809C125.721 92.1056 127.427 92.7969 128.943 93.8128C128.949 93.8169 128.954 93.8219 128.958 93.8279C128.962 93.8339 128.965 93.8409 128.967 93.8479C128.968 93.8549 128.968 93.8619 128.967 93.87C128.965 93.877 128.963 93.884 128.959 93.89C128.95 93.901 128.937 93.909 128.923 93.912C128.909 93.915 128.894 93.912 128.881 93.905C127.349 92.9823 125.646 92.3851 123.877 92.1517C122.151 91.8551 120.376 92.1907 118.874 93.0985C118.17 93.6004 117.579 94.2477 117.141 94.9961L115.611 97.2435C114.594 98.7754 113.449 100.216 112.189 101.552C112.149 101.592 112.101 101.623 112.048 101.643C111.996 101.663 111.94 101.671 111.884 101.668L111.854 101.666C108.683 101.471 105.5 101.342 102.32 101.256C99.141 101.155 95.9615 101.102 92.783 101.118C89.6055 101.126 86.432 101.258 83.2714 101.458C80.1307 101.595 77.0157 102.101 73.9901 102.965L73.9226 102.983L73.8879 102.99C72.1994 103.404 70.5853 104.083 69.1053 105.001C68.338 105.449 67.5984 105.945 66.8907 106.485L65.8176 107.285C65.4741 107.57 65.1446 107.875 64.8071 108.168C64.1192 108.744 63.466 109.358 62.8486 110.009C62.2341 110.665 61.58 111.284 60.9973 111.971C59.8577 113.364 58.6645 114.721 57.663 116.23C53.5375 122.194 50.2181 128.687 47.791 135.536C47.2034 137.255 46.5443 138.947 46.0172 140.684L44.4666 145.906C43.9376 147.631 43.4889 149.427 42.8575 151.144C42.256 152.878 41.5453 154.568 40.8564 156.246C40.1694 157.931 39.4329 159.595 38.7023 161.265C37.9459 162.934 37.258 164.582 36.3279 166.241C36.2514 166.366 36.1651 166.487 36.0698 166.598C36.0757 166.654 36.0291 166.617 36.0281 166.707C35.9953 166.868 35.9943 167.035 36.0251 167.196C36.1005 167.599 36.2356 167.988 36.4242 168.352C36.8182 169.119 37.3414 169.811 37.9687 170.398C39.2492 171.593 40.8623 172.367 42.5895 172.612L42.3632 173.166C41.6366 172.57 40.9417 171.954 40.2747 171.295C39.5808 170.645 38.9832 169.898 38.4988 169.078C38.3747 168.846 38.3003 168.591 38.2824 168.328C38.2824 168.178 38.3291 168.032 38.4144 167.908C38.4998 167.786 38.6209 167.693 38.7609 167.642C39.2284 167.498 39.7227 167.467 40.2042 167.555C41.1214 167.692 42.0277 167.9 42.9131 168.178C42.9201 168.18 42.927 168.183 42.932 168.188C42.9379 168.192 42.9429 168.198 42.9459 168.204C42.9499 168.211 42.9518 168.218 42.9528 168.225C42.9538 168.232 42.9528 168.24 42.9508 168.247C42.9469 168.26 42.9379 168.272 42.925 168.279C42.9131 168.286 42.8982 168.289 42.8843 168.285Z" fill="black"/>
<path d="M232.442 216.989C232.88 216.335 233.27 215.651 233.611 214.942C233.777 214.593 233.91 214.228 234.009 213.854C234.123 213.508 234.13 213.135 234.027 212.786C233.956 212.634 233.845 212.506 233.706 212.415C233.566 212.325 233.404 212.276 233.238 212.274C232.868 212.23 232.494 212.242 232.128 212.31C231.37 212.448 230.628 212.66 229.911 212.944C229.201 213.247 228.527 213.63 227.902 214.086C227.249 214.53 226.579 214.956 225.903 215.37C225.224 215.782 224.538 216.184 223.825 216.549C223.104 216.948 222.334 217.249 221.535 217.444C221.461 217.46 221.384 217.45 221.315 217.418C221.246 217.387 221.19 217.334 221.153 217.267C221.116 217.201 221.101 217.124 221.11 217.049C221.119 216.973 221.152 216.902 221.204 216.846L221.22 216.828C222.875 215.089 224.418 213.243 225.839 211.305L225.751 211.574V211.564C225.75 211.472 225.778 211.381 225.831 211.306L225.838 211.296C226.279 210.67 226.699 210.032 227.068 209.378C227.444 208.768 227.713 208.098 227.865 207.395C227.959 206.712 227.741 206.504 227.054 206.406C226.381 206.348 225.706 206.487 225.11 206.806C224.797 206.972 224.503 207.17 224.231 207.397C223.92 207.643 223.606 207.873 223.29 208.1C222.655 208.553 222.037 209.029 221.387 209.463C220.095 210.343 218.774 211.178 217.414 211.952C214.693 213.537 211.793 214.786 208.778 215.675C207.241 216.102 205.666 216.371 204.075 216.479C202.453 216.565 200.828 216.401 199.255 215.996C199.137 215.964 199.029 215.902 198.939 215.818C198.85 215.734 198.783 215.628 198.745 215.511C198.706 215.394 198.697 215.269 198.719 215.147C198.74 215.026 198.79 214.912 198.866 214.814L198.878 214.8L202.647 210.035L204.498 207.69C204.578 207.576 204.631 207.443 204.653 207.305C204.676 207.167 204.666 207.024 204.626 206.89C204.59 206.763 204.527 206.647 204.439 206.55C204.386 206.493 204.328 206.443 204.266 206.397C204.215 206.359 204.16 206.327 204.101 206.302C203.955 206.242 203.798 206.215 203.642 206.223C203.446 206.214 203.167 206.218 202.939 206.223C202.459 206.234 201.981 206.269 201.505 206.324C200.551 206.433 199.611 206.643 198.699 206.948C198.244 207.11 197.797 207.249 197.334 207.424C196.892 207.602 196.459 207.802 196.033 208.023L193.374 209.469C193.264 209.528 193.142 209.56 193.018 209.561H192.997H192.987L193.36 209.471C188.355 211.995 183.304 214.222 178.541 217.002L176.749 218.056C174.866 219.165 172.813 219.947 170.673 220.368C169.254 220.657 167.81 220.798 166.362 220.79C164.894 220.78 163.524 220.604 162.146 220.502L145.568 219.102L128.996 217.633C117.948 216.669 106.899 215.686 95.8443 214.831L91.7 214.557C91.0062 214.51 90.3242 214.487 89.6433 214.468C89.2323 214.475 88.8263 214.38 88.461 214.189C88.1146 213.989 87.8158 213.713 87.5865 213.383C86.8261 212.14 86.3298 210.753 86.1303 209.307C85.8851 207.916 85.7173 206.511 85.6299 205.101C85.348 199.492 85.4463 193.869 85.9238 188.273L86.1412 188.595C82.3244 187.411 78.5116 186.194 74.8041 184.682C71.0816 183.21 67.4366 181.547 63.8819 179.701C60.3292 177.852 56.8668 175.828 53.4323 173.798C49.9957 171.787 46.5283 169.773 42.7632 168.737L43.4164 168.237C43.4233 179.322 43.6556 190.406 44.1132 201.49C44.3515 207.026 44.6552 212.56 45.1049 218.076C45.2022 219.456 45.3391 220.832 45.4672 222.209C45.5863 223.587 45.7293 224.961 45.893 226.332C46.0499 227.706 46.172 229.088 46.4231 230.384C46.6673 231.696 47.0286 232.983 47.5021 234.23C49.4666 239.239 53.0292 243.445 57.6262 246.185C59.9053 247.569 62.3681 248.621 64.9401 249.307C66.2266 249.652 67.5339 249.912 68.8531 250.085C70.1823 250.251 71.569 250.36 72.923 250.5L77.0097 250.896L81.1054 251.163C83.8342 251.379 86.571 251.438 89.3048 251.55C92.0385 251.676 94.7762 251.625 97.512 251.672C100.247 251.604 102.986 251.613 105.718 251.466C116.66 251.015 127.557 249.776 138.324 247.757C143.698 246.75 149.104 245.602 154.544 244.689C159.981 243.759 165.431 242.98 170.884 242.233C181.786 240.726 192.71 239.447 203.616 238.073C209.063 237.369 214.522 236.679 219.909 235.704L221.912 235.295C222.582 235.162 223.204 234.941 223.855 234.771C224.476 234.524 225.092 234.252 225.701 233.97C226.3 233.665 226.877 233.318 227.427 232.933C228.53 232.19 229.437 231.186 230.068 230.009C230.37 229.443 230.505 228.8 230.457 228.159C230.43 227.857 230.325 227.568 230.153 227.318C229.982 227.07 229.748 226.871 229.477 226.741C229.441 226.723 229.408 226.697 229.384 226.665C229.359 226.632 229.342 226.594 229.336 226.554C229.329 226.514 229.332 226.472 229.345 226.433C229.359 226.395 229.381 226.36 229.411 226.332L229.426 226.317C230.02 225.821 230.588 225.293 231.126 224.734C231.648 224.167 232.082 223.523 232.413 222.824C232.582 222.489 232.687 222.125 232.716 221.751C232.747 221.376 232.704 220.999 232.589 220.643C232.288 219.937 231.759 219.355 231.09 218.989C231.075 218.981 231.063 218.969 231.053 218.955C231.043 218.942 231.036 218.926 231.031 218.91C231.027 218.893 231.027 218.876 231.029 218.859C231.032 218.842 231.037 218.826 231.046 218.811L231.057 218.796L232.443 216.988L232.448 216.982C232.464 216.961 232.487 216.948 232.513 216.944C232.539 216.941 232.565 216.947 232.586 216.963C232.607 216.979 232.62 217.003 232.624 217.029C232.628 217.055 232.622 217.081 232.606 217.102L231.253 218.961L231.219 218.767C231.955 219.148 232.541 219.768 232.883 220.527C233.022 220.923 233.083 221.344 233.061 221.764C233.039 222.184 232.935 222.594 232.755 222.973C232.427 223.72 231.988 224.41 231.453 225.022C230.909 225.617 230.333 226.18 229.726 226.71L229.676 226.285C230.031 226.446 230.34 226.695 230.571 227.011C230.802 227.326 230.949 227.697 230.997 228.088C231.076 228.835 230.941 229.591 230.608 230.263C229.962 231.557 229.011 232.67 227.838 233.504C227.27 233.923 226.673 234.303 226.053 234.641C225.423 234.952 224.784 235.255 224.136 235.53C223.462 235.73 222.787 235.982 222.111 236.134L220.084 236.599C214.664 237.678 209.219 238.462 203.776 239.263L171.115 243.888C165.68 244.691 160.251 245.527 154.858 246.509C152.156 246.968 149.472 247.556 146.784 248.082C144.099 248.642 141.399 249.223 138.687 249.732C127.831 251.793 116.842 253.068 105.805 253.548C94.7673 254.051 83.7072 253.713 72.7195 252.539C71.3417 252.387 69.9867 252.273 68.5881 252.091C67.1825 251.899 65.7918 251.613 64.4229 251.236C61.6752 250.486 59.0477 249.345 56.6187 247.848C51.6802 244.861 47.8694 240.299 45.7868 234.882C45.2836 233.533 44.9014 232.142 44.6463 230.724C44.3812 229.294 44.2671 227.907 44.1212 226.525C43.9713 225.138 43.8462 223.752 43.744 222.364C43.6328 220.977 43.5137 219.591 43.4333 218.202C43.0521 212.651 42.8178 207.099 42.6501 201.546C42.3185 190.439 42.2282 179.332 42.38 168.226V168.216C42.381 168.148 42.3949 168.081 42.4217 168.018C42.4476 167.956 42.4863 167.9 42.5339 167.852C42.5826 167.805 42.6391 167.768 42.7017 167.743C42.7642 167.718 42.8307 167.705 42.8982 167.706C42.9439 167.707 42.9885 167.714 43.0332 167.726C46.976 168.874 50.4602 170.981 53.875 173.038C57.2937 175.112 60.6905 177.197 64.2184 179.047C67.7433 180.9 71.3586 182.571 75.0512 184.053C78.73 185.576 82.52 186.806 86.3139 188.005C86.3804 188.026 86.4389 188.069 86.4777 188.127C86.5174 188.186 86.5362 188.256 86.5313 188.326C86.0568 193.888 85.9853 199.477 86.3169 205.05C86.4122 206.432 86.5849 207.809 86.834 209.172C87.0256 210.503 87.4832 211.782 88.1801 212.929C88.3478 213.172 88.5672 213.376 88.8213 213.524C89.0755 213.653 89.3574 213.714 89.6413 213.702C90.346 213.716 91.0498 213.736 91.7397 213.778L95.898 214.014C106.975 214.68 118.039 215.467 129.104 216.251L145.699 217.453L162.286 218.767C163.672 218.863 165.061 219.029 166.367 219.028C167.695 219.028 169.019 218.891 170.319 218.62C171.617 218.348 172.882 217.942 174.095 217.407C174.702 217.14 175.292 216.839 175.866 216.508L177.674 215.461C182.54 212.664 187.686 210.434 192.615 207.987L192.626 207.981C192.739 207.926 192.862 207.897 192.987 207.897H192.997L192.621 207.989L195.291 206.56C195.763 206.319 196.246 206.098 196.743 205.903C197.223 205.724 197.739 205.563 198.236 205.393C199.24 205.067 200.275 204.844 201.326 204.731C201.851 204.673 202.378 204.638 202.906 204.629C203.181 204.626 203.406 204.622 203.714 204.635C204.062 204.638 204.406 204.71 204.726 204.848C204.899 204.924 205.062 205.021 205.212 205.136C205.353 205.242 205.483 205.36 205.601 205.492C205.852 205.773 206.034 206.111 206.132 206.476C206.229 206.833 206.247 207.207 206.185 207.571C206.122 207.936 205.981 208.282 205.771 208.584L203.843 210.999L200.041 215.743L199.664 214.548C201.081 214.922 202.546 215.086 204.011 215.038C205.503 214.959 206.983 214.729 208.429 214.352C211.355 213.538 214.176 212.374 216.829 210.883C218.169 210.149 219.477 209.351 220.757 208.509C221.399 208.095 222.017 207.635 222.648 207.199C222.964 206.979 223.276 206.758 223.577 206.527C223.907 206.265 224.261 206.038 224.635 205.846C225.418 205.446 226.3 205.283 227.173 205.377C227.692 205.413 228.179 205.649 228.531 206.037C228.688 206.25 228.797 206.496 228.851 206.757C228.905 207.017 228.903 207.287 228.844 207.546C228.664 208.368 228.343 209.152 227.893 209.861C227.487 210.542 227.043 211.2 226.565 211.833L226.652 211.564V211.574L226.651 211.588C226.65 211.681 226.619 211.772 226.564 211.845C225.072 213.779 223.458 215.616 221.733 217.341L221.418 216.726C222.892 216.3 224.299 215.667 225.597 214.844C226.275 214.452 226.947 214.047 227.609 213.621C228.273 213.163 228.986 212.783 229.734 212.485C230.491 212.207 231.272 212.005 232.067 211.881C232.478 211.82 232.895 211.822 233.306 211.885C233.534 211.904 233.754 211.986 233.938 212.123C234.124 212.26 234.269 212.445 234.356 212.659C234.474 213.078 234.459 213.525 234.313 213.935C234.197 214.324 234.045 214.702 233.858 215.063C233.49 215.772 233.071 216.454 232.606 217.102C232.591 217.123 232.568 217.138 232.543 217.142C232.517 217.147 232.49 217.141 232.469 217.126C232.447 217.111 232.432 217.089 232.427 217.063C232.422 217.037 232.428 217.01 232.442 216.989Z" fill="black"/>
<path d="M221.789 217.545C220.291 218.43 218.78 219.248 217.226 219.998C215.689 220.775 214.079 221.394 212.42 221.849C214.007 221.223 215.529 220.439 216.962 219.508C218.407 218.608 219.818 217.633 221.172 216.621L221.18 216.615C221.297 216.527 221.445 216.49 221.59 216.512C221.735 216.534 221.865 216.613 221.952 216.732C222.04 216.85 222.076 217 222.056 217.146C222.034 217.292 221.955 217.423 221.838 217.512C221.822 217.524 221.805 217.535 221.789 217.545Z" fill="black"/>
<path d="M231.484 219.332C228.918 221.093 226.32 222.783 223.657 224.377C222.323 225.168 220.979 225.946 219.59 226.638C218.9 226.995 218.194 227.315 217.472 227.6C217.115 227.751 216.746 227.876 216.37 227.972C215.998 228.081 215.614 228.141 215.227 228.15C215.611 228.118 215.988 228.036 216.35 227.905C216.717 227.787 217.074 227.643 217.418 227.471C218.116 227.147 218.798 226.786 219.46 226.393C220.795 225.623 222.085 224.772 223.362 223.906C225.91 222.167 228.401 220.326 230.832 218.433L230.837 218.429C230.953 218.339 231.1 218.299 231.245 218.318C231.39 218.337 231.522 218.413 231.611 218.531C231.701 218.648 231.74 218.796 231.721 218.942C231.703 219.089 231.627 219.222 231.511 219.312L231.484 219.332Z" fill="black"/>
<path d="M229.933 226.945C228.932 227.683 227.881 228.351 226.787 228.942C225.711 229.536 224.602 230.066 223.465 230.53C221.208 231.465 218.847 232.121 216.434 232.481C218.792 231.943 221.077 231.117 223.237 230.022C224.313 229.484 225.358 228.884 226.364 228.223C227.365 227.58 228.321 226.867 229.224 226.09L229.242 226.075C229.296 226.026 229.36 225.99 229.429 225.966C229.498 225.943 229.571 225.933 229.644 225.939C229.716 225.944 229.787 225.963 229.852 225.996C229.918 226.029 229.975 226.074 230.023 226.129C230.071 226.185 230.107 226.249 230.13 226.32C230.153 226.389 230.162 226.463 230.157 226.536C230.151 226.609 230.131 226.68 230.098 226.746C230.066 226.812 230.021 226.871 229.965 226.918C229.956 226.927 229.944 226.937 229.933 226.945Z" fill="black"/>
<path d="M203.083 185.063C203.001 185.063 202.921 185.043 202.848 185.004C202.776 184.965 202.714 184.908 202.669 184.839L198.383 178.305C198.348 178.25 198.323 178.189 198.31 178.124C198.297 178.06 198.298 177.993 198.311 177.929C198.324 177.864 198.349 177.803 198.385 177.748C198.422 177.694 198.469 177.647 198.523 177.611C198.577 177.574 198.639 177.549 198.702 177.537C198.767 177.524 198.832 177.524 198.896 177.537C198.96 177.55 199.021 177.576 199.074 177.613C199.129 177.649 199.176 177.696 199.211 177.751L203.497 184.286C203.569 184.396 203.596 184.531 203.569 184.661C203.543 184.792 203.467 184.907 203.358 184.98C203.276 185.035 203.181 185.063 203.083 185.063Z" fill="black"/>
<path d="M225.149 168.732C225.066 168.732 224.986 168.712 224.913 168.673C224.841 168.634 224.78 168.576 224.735 168.508L220.447 161.974C220.412 161.919 220.387 161.858 220.374 161.793C220.362 161.728 220.362 161.662 220.375 161.597C220.388 161.533 220.414 161.472 220.45 161.417C220.486 161.363 220.533 161.316 220.587 161.279C220.642 161.242 220.703 161.217 220.767 161.205C220.831 161.192 220.897 161.192 220.961 161.205C221.024 161.219 221.085 161.244 221.139 161.281C221.193 161.319 221.24 161.366 221.275 161.42L225.563 167.954C225.612 168.029 225.64 168.118 225.645 168.208C225.649 168.298 225.629 168.388 225.586 168.468C225.544 168.548 225.48 168.615 225.404 168.661C225.326 168.708 225.238 168.732 225.149 168.732Z" fill="black"/>
</svg>
