<svg width="638" height="471" viewBox="0 0 638 471" fill="none" xmlns="http://www.w3.org/2000/svg">
<path d="M160.726 95.4065H160.711C160.686 95.4083 160.664 95.4029 160.642 95.3902L160.631 95.3829C158.661 94.2779 156.639 93.2924 154.573 92.432C152.523 91.5697 150.4 90.7345 148.335 90.0643L148.504 90.0914L148.473 90.0933C148.422 90.0951 148.37 90.0878 148.321 90.0715L148.28 90.057C137.37 86.2673 126.041 84.155 114.613 83.7782C108.917 83.5916 103.216 83.7927 97.5424 84.3797L80.3459 85.9901C68.8766 87.0136 57.386 87.7455 45.902 88.5553C34.4148 89.327 22.9324 90.1621 11.4664 91.22L11.7118 90.2472C13.7403 91.8794 15.597 93.7616 17.2444 95.8539C18.8754 97.9734 20.2659 100.305 21.3832 102.798C22.4645 105.308 23.3217 107.928 23.9417 110.623C24.5307 113.323 24.9069 116.074 25.0705 118.846C25.3486 124.386 25.0116 129.942 24.0677 135.391C23.1745 140.863 21.7742 146.218 19.8864 151.372L18.5204 149.427C26.5886 147.738 34.6536 146.035 42.7317 144.412L66.956 139.488L65.6326 140.809L65.8076 140.233L65.7553 140.391C66.9266 136.284 69.3412 132.75 72.5901 130.384C75.8193 128.023 79.6506 126.878 83.513 127.119C87.3933 127.395 91.0741 129.117 93.9565 132.007C94.3328 132.342 94.673 132.722 94.9691 133.144L95.9049 134.364C96.466 135.221 96.9846 136.114 97.4557 137.036C97.9039 137.95 98.2099 138.892 98.5894 139.82C98.7677 140.286 98.9607 140.748 99.1227 141.219L99.5235 142.655C101.451 150.26 102.192 158.173 101.714 166.053C101.397 173.828 100.412 181.551 98.7726 189.117L97.5604 187.771L113.846 184L130.164 180.388C130.205 180.379 130.247 180.388 130.283 180.413C130.319 180.438 130.344 180.478 130.352 180.522C130.362 180.567 130.355 180.616 130.334 180.656C130.311 180.694 130.277 180.723 130.236 180.735L114.142 185.409L98.0185 189.949C97.8565 189.994 97.6864 189.994 97.5244 189.949C97.3625 189.902 97.2136 189.811 97.0909 189.684C96.9699 189.558 96.8782 189.398 96.8259 189.222C96.7735 189.047 96.7637 188.858 96.7948 188.675L96.8063 188.603C98.1084 181.136 98.8511 173.562 99.0295 165.959C99.3223 158.455 98.4602 150.95 96.4807 143.767L96.0996 142.454C95.9474 142.03 95.7675 141.622 95.6039 141.206C95.2554 140.391 94.9642 139.514 94.5765 138.749C94.1381 138.039 93.7929 137.249 93.2956 136.594L92.5317 135.628C92.2977 135.289 92.0213 134.987 91.7137 134.728C89.3793 132.451 86.4199 131.11 83.3134 130.925C80.1921 130.728 77.0953 131.646 74.4828 133.547C71.8801 135.447 69.9334 138.266 68.9551 141.545L68.9011 141.7C68.8929 141.746 68.8815 141.789 68.8651 141.833L68.7572 142.104C68.6476 142.376 68.4791 142.613 68.2664 142.796C68.0554 142.979 67.8051 143.102 67.54 143.153L43.2568 147.706C35.164 149.244 27.0598 150.7 18.9572 152.171C18.733 152.211 18.5024 152.186 18.2897 152.093C18.0787 152.001 17.8922 151.847 17.7515 151.648C17.6125 151.448 17.5241 151.211 17.4963 150.961C17.4669 150.709 17.5012 150.456 17.5912 150.224C19.5167 145.298 21.0184 140.18 22.0768 134.943C23.1761 129.695 23.6702 124.315 23.5475 118.931C23.469 116.248 23.1811 113.576 22.6887 110.946C22.1668 108.326 21.3832 105.779 20.3526 103.352C19.3007 100.937 17.9854 98.6745 16.4362 96.613C14.8641 94.5678 13.0876 92.7254 11.1425 91.1204L11.1278 91.1077C11.0509 91.0407 10.9936 90.9501 10.9642 90.8469C10.9331 90.7436 10.9331 90.6331 10.9609 90.5298C10.9887 90.4248 11.0443 90.3324 11.1212 90.2654C11.1965 90.1965 11.2897 90.1548 11.3862 90.1476C22.8555 89.115 34.3068 87.8687 45.7532 86.5445C57.2012 85.2601 68.6443 83.8996 80.1103 82.8308L97.3134 81.3C103.103 80.753 108.92 80.6533 114.724 81.0048C120.524 81.3598 126.292 82.1986 131.978 83.5156C137.66 84.7873 143.24 86.5608 148.666 88.8179L148.473 88.7817L148.504 88.7835L148.548 88.7853C148.591 88.7871 148.632 88.7944 148.671 88.8107C150.822 89.6603 152.834 90.6059 154.881 91.6186C156.917 92.6258 158.892 93.7797 160.791 95.0732L160.711 95.0496L160.726 95.0514C160.768 95.0532 160.807 95.0714 160.835 95.1058C160.865 95.1384 160.881 95.1819 160.881 95.229C160.881 95.2742 160.865 95.3195 160.835 95.3522C160.807 95.3848 160.768 95.4047 160.726 95.4065Z" fill="black"/>
<path d="M231.05 142.869C230.133 137.786 228.295 132.96 225.643 128.686C224.321 126.639 222.8 124.757 221.107 123.074C219.392 121.417 217.553 119.92 215.613 118.603C211.625 116.02 207.37 113.982 202.941 112.529C198.449 111.022 193.856 109.915 189.207 109.216L189.117 109.207C187.526 108.716 185.943 108.192 184.364 107.636C186.02 107.725 187.669 107.855 189.311 108.017L189.223 108.008C194.078 107.772 198.94 108.285 203.669 109.529C208.472 110.727 213.066 112.785 217.272 115.618C221.56 118.48 225.129 122.487 227.652 127.275C230.079 132.02 231.256 137.422 231.05 142.869Z" fill="black"/>
<path d="M78.832 128.206C81.6327 127.005 84.4644 125.96 87.3158 125.012C90.1656 124.05 93.0284 123.165 95.9076 122.349C98.7769 121.494 101.679 120.795 104.57 120.04C107.477 119.364 110.377 118.659 113.305 118.092L113.983 117.96L114.408 118.321C115.609 119.348 116.716 120.502 117.716 121.764C118.707 122.967 119.618 124.248 120.441 125.598C121.267 126.931 122.007 128.326 122.658 129.773C123.314 131.204 123.868 132.69 124.317 134.215C123.477 132.916 122.614 131.657 121.725 130.442C120.824 129.226 119.914 128.014 118.966 126.915C117.997 125.799 117.006 124.719 115.977 123.704C114.971 122.724 113.917 121.806 112.821 120.955L113.924 121.183C111.053 122.034 108.156 122.75 105.265 123.507C102.358 124.181 99.464 124.913 96.5374 125.485C93.6189 126.107 90.6874 126.648 87.7379 127.112C84.7933 127.592 81.8274 127.978 78.832 128.206Z" fill="black"/>
<path d="M38.0605 88.2582C41.4926 91.7744 44.1951 96.075 45.9766 100.861C47.8415 105.647 49.0161 110.729 49.4627 115.917C49.834 121.092 49.5478 126.302 48.6104 131.389C48.4975 132.021 48.4108 132.659 48.275 133.284L47.7957 135.143L46.788 138.827C45.975 141.228 45.0229 143.57 44.0266 145.854C44.3505 143.305 44.8871 140.862 45.2601 138.391L45.7312 134.675L45.9913 132.835C46.0617 132.219 46.083 131.596 46.1304 130.978C46.2073 129.741 46.2973 128.509 46.415 127.282C46.4968 126.052 46.4543 124.817 46.4805 123.589C46.5312 121.136 46.4576 118.681 46.2629 116.237C45.8556 111.35 44.9771 106.524 43.6422 101.845C42.2975 97.0767 40.4228 92.5135 38.0605 88.2582Z" fill="black"/>
<path d="M125.182 125.293C127.585 124.301 130.001 123.324 132.434 122.398C132.3 123.498 132.228 124.605 132.221 125.715C130.139 126.438 128.04 127.128 125.928 127.802C124.498 128.257 123.07 128.712 121.625 129.166C121.428 128.829 121.23 128.509 121.032 128.206C120.835 127.886 120.623 127.583 120.439 127.297C122.02 126.607 123.602 125.951 125.182 125.293Z" fill="black"/>
<path d="M149.141 119.603C147.286 120.312 145.462 121.018 143.607 121.708H143.592C143.015 120.696 142.342 119.754 141.585 118.897L142.269 118.645C144.322 117.904 146.375 117.163 148.426 116.438C148.67 117.583 148.929 118.645 149.141 119.603Z" fill="black"/>
<path d="M138.698 108.511C141.753 107.415 144.809 106.321 147.88 105.261C147.548 106.392 147.387 107.575 147.409 108.763C144.839 109.772 142.239 110.732 139.655 111.708C133.924 113.779 128.162 115.817 122.355 117.65C119.664 118.527 116.958 119.362 114.238 120.159C111.107 121.085 107.974 121.96 104.797 122.719C106.058 122.096 107.321 121.473 108.597 120.866C108.613 120.866 108.613 120.866 108.628 120.85C112.914 118.83 117.262 116.96 121.611 115.159C127.266 112.803 132.982 110.649 138.698 108.511Z" fill="black"/>
<path d="M162.61 102.551C162.351 102.669 162.095 102.787 161.836 102.888C161.17 102.272 160.421 101.778 159.616 101.423C160.437 101.171 161.257 100.917 162.078 100.665C162.276 101.372 162.459 102.011 162.61 102.551Z" fill="black"/>
<path d="M18.7405 150.792C-15.579 116.103 11.4313 90.6892 11.4313 90.6892C35.4201 109.924 18.7405 150.792 18.7405 150.792Z" fill="black"/>
<path d="M97.7853 188.853C69.4647 198.208 67.248 141.318 67.248 141.318C67.2824 141.2 67.3151 141.084 67.3495 140.97C71.6077 126.485 89.8594 124.612 96.156 138.155C104.689 156.508 97.7853 188.853 97.7853 188.853Z" fill="black"/>
<path d="M119.149 182.06C114.458 194.858 109.659 207.524 105.243 220.308C100.73 232.935 96.9282 245.858 93.856 259.005C93.1313 262.231 92.5751 265.501 92.189 268.798C91.7702 271.99 91.7833 275.232 92.2283 278.419C92.4622 279.919 92.9202 281.364 93.5877 282.694C94.2666 283.959 95.2089 285.026 96.3344 285.806C98.9043 287.248 101.826 287.734 104.666 287.187C110.694 286.027 116.497 283.714 121.809 280.35C123.158 279.522 124.509 278.705 125.841 277.841L129.78 275.127C132.439 273.381 134.928 271.338 137.479 269.419C140.019 267.481 142.436 265.345 144.914 263.325L148.511 260.113C149.709 259.045 150.941 258.026 152.096 256.9C154.419 254.662 156.836 252.566 159.094 250.257L162.537 246.871L165.893 243.378C170.347 238.705 174.633 233.844 178.749 228.801C182.895 223.796 186.873 218.624 190.757 213.365C198.544 202.822 205.796 191.807 212.477 180.371C215.828 174.643 219.045 168.806 222.125 162.865C225.21 156.928 228.163 150.879 230.853 144.68L231.458 144.919C227.82 158.227 222.917 171.071 216.83 183.232C210.821 195.489 203.886 207.16 196.1 218.12C188.229 229.038 179.492 239.154 169.991 248.346L166.424 251.778L162.758 255.079C160.331 257.3 157.788 259.365 155.248 261.421C152.704 263.47 150.061 265.372 147.443 267.292C144.745 269.093 142.121 270.999 139.38 272.698C136.643 274.403 133.942 276.158 131.15 277.738C128.383 279.359 125.623 280.991 122.795 282.506C117.164 285.728 111.157 288.073 104.946 289.475C101.633 290.248 98.1846 289.864 95.0796 288.373C93.4748 287.482 92.0876 286.18 91.0324 284.571C90.0411 282.982 89.282 281.227 88.7879 279.375C87.9111 275.821 87.5267 272.142 87.6477 268.463C87.7344 264.894 88.0584 261.336 88.6146 257.818C89.7499 250.909 91.4152 244.117 93.591 237.518C95.6767 230.935 98.0602 224.5 100.647 218.182C101.914 215.01 103.292 211.894 104.679 208.791C106.055 205.68 107.504 202.611 108.998 199.57C111.974 193.483 115.11 187.494 118.583 181.723L119.149 182.06Z" fill="black"/>
<path d="M43.5898 98.0622C52.3452 96.6039 61.1234 95.4952 69.9098 94.5097C78.6962 93.5007 87.4958 92.7018 96.2969 91.941C105.103 91.2472 113.912 90.5986 122.736 90.1566C131.557 89.6911 140.388 89.3523 149.241 89.3668C140.487 90.8305 131.708 91.941 122.921 92.9264C114.136 93.9319 105.337 94.7326 96.5357 95.488C87.728 96.1782 78.9187 96.8267 70.0963 97.2687C61.2739 97.7307 52.4433 98.0712 43.5898 98.0622Z" fill="black"/>
<path d="M151.117 261.38C149.859 249.016 148.649 236.632 147.564 224.236L147.149 219.588L146.941 217.263C146.92 217.082 146.913 216.848 146.88 216.709C146.843 216.6 146.812 216.486 146.789 216.372C146.684 216.06 146.563 215.756 146.43 215.459C145.189 212.856 143.561 210.253 142.051 207.653C138.969 202.45 135.995 197.117 133.338 191.565C132.023 188.779 130.785 185.938 129.702 183.007C128.63 180.038 127.732 177.082 126.803 174.163C124.935 168.303 123.083 162.437 121.301 156.544L118.596 147.717L117.92 145.51C117.657 144.675 117.48 143.809 117.393 142.93C117.205 141.141 117.432 139.329 118.054 137.664C118.674 135.893 119.852 134.431 121.37 133.547C122.939 132.784 124.712 132.704 126.332 133.327C129.116 134.485 131.658 136.26 133.8 138.548L132.128 139.588C131.742 136.585 131.493 133.563 131.385 130.534C131.333 129.021 131.325 127.493 131.379 125.98C131.495 124.453 131.55 122.902 131.783 121.388C131.982 119.775 132.502 118.232 133.304 116.868C133.783 116.102 134.49 115.547 135.301 115.299C136.08 115.122 136.887 115.17 137.642 115.442C140.374 116.469 142.665 118.578 144.078 121.362L143.592 121.069H143.607L143.923 121.071L144.089 121.357C145.024 123.014 145.868 124.73 146.62 126.498C146.97 127.339 147.379 128.145 147.845 128.913C148.133 129.29 148.13 129.284 148.539 129.311C148.667 129.326 148.796 129.297 148.909 129.226C149.022 129.157 149.113 129.052 149.171 128.924C149.454 128.117 149.568 127.25 149.503 126.387C149.481 125.442 149.414 124.5 149.301 123.561C149.084 121.667 148.747 119.79 148.294 117.948C147.831 116.071 147.458 114.167 147.176 112.247C146.857 110.283 146.833 108.274 147.104 106.301C147.275 105.279 147.616 104.301 148.115 103.419C148.639 102.528 149.352 101.792 150.195 101.281C151.855 100.381 153.704 99.9861 155.547 100.138L155.452 100.144C156.239 100.059 157.033 100.088 157.813 100.229C158.583 100.367 159.339 100.604 160.062 100.934C161.523 101.611 162.791 102.72 163.727 104.136L163.668 104.06C163.789 104.203 163.859 104.39 163.867 104.586L163.856 107.457L162.667 104.901L162.652 104.868L162.636 104.836L162.611 104.756C160.481 98.5061 159.048 91.9936 158.34 85.3598C158.189 83.6406 158.21 81.9106 158.402 80.1969C158.546 78.2857 159.293 76.4923 160.514 75.1318C161.225 74.4507 162.096 74.0014 163.027 73.8402C163.928 73.7224 164.841 73.8257 165.703 74.1409C167.242 74.7804 168.649 75.7586 169.838 77.014C172.073 79.3654 174.036 82.0139 175.685 84.8978C177.347 87.7003 178.874 90.5969 180.259 93.5787C183.145 99.4879 185.424 105.738 187.048 112.212C188.597 118.621 190.06 124.973 192.047 131.101C194.051 137.153 196.469 143.244 200.317 147.659C202.102 149.823 204.493 151.26 207.107 151.733C208.449 151.889 209.803 151.827 211.13 151.553C212.542 151.336 213.941 151.019 215.316 150.601C218.076 149.773 220.738 148.586 223.244 147.063C225.722 145.563 228.013 143.709 230.056 141.548L231.697 139.744L232.57 141.95C233.519 144.432 234.095 147.066 234.275 149.753C234.473 152.358 234.388 154.979 234.025 157.56C233.251 162.669 231.582 167.56 229.11 171.959C227.883 174.192 226.39 176.234 224.672 178.025C222.923 179.746 221.014 181.254 218.976 182.523C216.97 183.772 214.914 184.808 213.031 185.971C211.192 186.956 209.619 188.46 208.469 190.329C207.51 192.356 207.003 194.608 206.99 196.896C206.842 199.331 206.759 201.786 206.733 204.249C206.677 209.175 206.762 214.117 206.921 219.055C207.093 223.995 207.266 228.937 207.556 233.873C207.871 238.801 208.117 243.762 208.866 248.617L208.57 248.693C207.615 243.82 207.173 238.886 206.656 233.958C206.185 229.027 205.755 224.089 205.46 219.138C205.164 214.187 204.94 209.229 204.857 204.253C204.814 201.764 204.832 199.266 204.91 196.757C204.871 194.081 205.418 191.433 206.502 189.04C207.821 186.759 209.66 184.9 211.83 183.654C213.833 182.366 215.837 181.306 217.71 180.087C219.552 178.889 221.273 177.478 222.845 175.877C224.356 174.237 225.66 172.379 226.723 170.355C228.921 166.274 230.38 161.758 231.018 157.059C231.335 154.743 231.404 152.394 231.219 150.061C231.057 147.8 230.578 145.583 229.802 143.485L232.318 143.887C227.784 148.711 222.222 152.184 216.149 153.986C214.651 154.448 213.124 154.801 211.583 155.046C210.796 155.14 210.075 155.303 209.233 155.338L207.968 155.379C207.546 155.352 207.122 155.298 206.698 155.253C203.363 154.705 200.302 152.901 198.03 150.142C193.605 144.909 191.246 138.498 189.204 132.212C187.218 125.873 185.793 119.384 184.318 113.018C183.943 111.431 183.567 109.852 183.114 108.355C182.652 106.83 182.131 105.308 181.586 103.798C180.495 100.772 179.291 97.7851 177.977 94.8649C176.68 91.9429 175.243 89.0988 173.676 86.3452C172.17 83.6134 170.38 81.0863 168.343 78.8165C167.398 77.7531 166.272 76.9071 165.032 76.3274C164.478 76.1046 163.889 76.014 163.301 76.0593C162.75 76.1408 162.228 76.389 161.795 76.7767C160.897 77.7821 160.339 79.1009 160.216 80.5103C160.003 82.0718 159.946 83.6551 160.044 85.2311C160.597 91.7509 161.867 98.1728 163.825 104.352L163.786 104.24L163.8 104.274L162.6 104.589C162.598 104.676 162.613 104.76 162.641 104.839C162.67 104.917 162.714 104.99 162.77 105.049L162.709 104.973C161.932 103.722 160.857 102.732 159.604 102.113C158.345 101.501 156.97 101.242 155.6 101.357L155.539 101.363L155.503 101.361C153.857 101.203 152.203 101.53 150.707 102.307C150.013 102.745 149.418 103.352 148.966 104.082C148.513 104.81 148.217 105.645 148.097 106.519C147.834 108.366 147.845 110.25 148.133 112.093C148.395 113.984 148.747 115.859 149.187 117.708C149.651 119.589 150.01 121.498 150.26 123.426C150.386 124.4 150.466 125.38 150.499 126.364C150.589 127.429 150.44 128.503 150.062 129.489C149.907 129.777 149.691 130.016 149.431 130.186C149.172 130.358 148.878 130.456 148.577 130.471C148.274 130.485 147.975 130.418 147.701 130.273C147.43 130.128 147.194 129.913 147.016 129.643C146.494 128.82 146.036 127.951 145.647 127.043C144.894 125.33 144.053 123.667 143.126 122.062L143.607 122.348H143.592L143.28 122.35L143.108 122.054C141.845 119.565 139.772 117.701 137.314 116.842C136.813 116.603 136.252 116.569 135.73 116.743C135.208 116.919 134.76 117.292 134.462 117.799C133.834 118.982 133.441 120.301 133.315 121.667C133.135 123.109 133.129 124.56 133.054 126.014C133.041 127.491 133.09 128.954 133.181 130.429C133.368 133.373 133.687 136.306 134.138 139.215L134.605 142.213L132.466 140.255C130.505 138.269 128.203 136.739 125.697 135.757C124.63 135.36 123.467 135.423 122.44 135.934C121.48 136.576 120.75 137.565 120.374 138.733C119.929 139.963 119.775 141.298 119.927 142.612C119.998 143.278 120.138 143.934 120.344 144.566L121.04 146.769L123.822 155.579C125.697 161.444 127.503 167.337 129.293 173.236C130.201 176.192 131.066 179.145 132.051 181.962C133.065 184.801 134.241 187.581 135.498 190.322C138.027 195.804 140.96 201.066 143.905 206.352C145.359 209.03 146.888 211.591 148.197 214.53C148.367 214.934 148.515 215.349 148.637 215.771C148.694 216.035 148.745 216.303 148.788 216.568C148.822 216.81 148.819 216.968 148.835 217.173L148.984 219.495L149.28 224.14C150.095 236.529 150.782 248.929 151.42 261.351L151.117 261.38Z" fill="black"/>
<path d="M169.435 122.717L162.526 104.89L163.948 104.294L169.435 122.717Z" fill="black"/>
<path d="M394.53 61.8169C388.925 64.4455 383.085 66.6574 377.235 68.6845C371.357 70.6935 365.381 72.3384 359.338 73.6137C353.261 74.9905 347.072 75.6734 340.871 75.6517C337.723 75.6191 334.586 75.2622 331.499 74.5865C328.317 73.9144 325.272 72.6101 322.513 70.7351L322.647 70.8203C318.007 68.257 313.342 65.7462 308.727 63.1249L307.188 62.2517L308.113 60.7753C308.225 60.576 308.365 60.3985 308.527 60.25C308.604 60.1685 308.689 60.0942 308.778 60.0272C308.917 59.9221 309.082 59.7826 309.205 59.7101C309.461 59.5543 309.735 59.3623 309.978 59.2464C310.481 58.971 310.976 58.7355 311.464 58.5308C312.445 58.1069 313.419 57.7319 314.397 57.4113C316.347 56.7265 318.308 56.2084 320.27 55.7012C324.193 54.6994 328.129 53.8516 332.078 53.1578C336.025 52.4241 339.977 51.7792 343.935 51.185C347.889 50.5637 351.851 50.0474 355.81 49.4985L355.275 49.8246L363.371 39.564C366.075 36.1384 368.679 32.6602 371.475 29.2745C377.12 22.5736 383.661 16.8709 390.867 12.3656C394.484 10.1392 398.241 8.20627 402.11 6.58132C405.996 5.00166 409.972 3.71002 414.013 2.71549C422.109 0.434763 430.496 -0.302526 438.815 0.538028C447.236 1.69017 455.264 5.15382 462.167 10.6174C469.035 16.1589 474.63 23.4123 478.498 31.7907C480.416 35.9753 481.909 40.3828 482.955 44.9316L483.632 48.3681C483.82 49.5075 484.002 50.6379 484.157 51.7792C484.486 54.0563 484.752 56.3443 484.957 58.6467C485.404 63.2698 485.505 67.9236 485.263 72.563C485.035 77.2748 484.26 81.9341 482.955 86.4231L482.43 88.1694L480.843 87.6423L459.396 80.503L437.891 73.5702C430.722 71.2587 423.536 69.016 416.318 66.9237C412.716 65.8458 409.1 64.8295 405.474 63.8767C403.653 63.4582 401.842 62.9184 400.01 62.5995L397.263 62.0543L394.53 61.8169ZM394.454 61.4528L397.319 61.4854L400.115 61.8387C401.988 62.0579 403.815 62.4926 405.67 62.8097C409.354 63.5578 413.03 64.3585 416.683 65.2516C423.989 67.0487 431.26 68.9925 438.516 71.0051C445.772 73.0123 452.987 75.1843 460.206 77.3418C467.419 79.5247 474.634 81.6841 481.818 84.0065L479.706 85.2257C482.115 76.9469 482.099 67.8729 481.373 59.038C481.181 56.8189 480.926 54.6052 480.609 52.3951C480.46 51.2901 480.283 50.1833 480.103 49.0891L479.473 45.87C478.538 41.5966 477.185 37.4481 475.439 33.5008C471.896 25.5825 466.722 18.6969 460.335 13.3981C453.891 8.14287 446.384 4.71002 438.47 3.40209C430.434 2.34958 422.297 2.78252 414.391 4.6792C406.369 6.26429 398.623 9.2479 391.446 13.5231C384.269 17.831 377.786 23.4268 372.262 30.0806C366.89 36.8721 361.769 44.0258 356.58 51.0455L356.384 51.3118L356.044 51.3734C352.114 52.0817 348.181 52.7629 344.265 53.5364C340.345 54.2846 336.436 55.0835 332.547 55.9657C328.655 56.8406 324.782 57.7736 320.954 58.8225C319.043 59.3532 317.14 59.9311 315.29 60.5742C314.359 60.884 313.45 61.2409 312.578 61.6213C312.134 61.8097 311.716 62.0108 311.325 62.2282C311.109 62.3296 310.966 62.4474 310.785 62.5506C310.718 62.5959 310.654 62.643 310.592 62.6937C310.557 62.7173 310.53 62.7408 310.549 62.7264C310.571 62.6865 310.494 62.8242 310.7 62.4945L310.086 60.1431C314.731 62.6992 319.324 65.3657 323.944 67.978L324.018 68.0197L324.078 68.0631C328.871 71.5214 334.999 72.5177 340.929 72.755C343.94 72.8365 346.951 72.7369 349.953 72.4597C352.966 72.2188 355.98 71.8148 358.98 71.2967C364.989 70.3022 370.932 68.7914 376.852 67.1682C382.781 65.5197 388.608 63.6031 394.454 61.4528Z" fill="black"/>
<path d="M431.573 10.5667C428.695 14.3111 425.746 17.9523 422.783 21.5718L413.903 32.4174C410.944 36.026 408.008 39.6564 405.096 43.3102C402.205 46.9858 399.345 50.6832 396.504 54.4675C398.613 50.1325 401.032 45.9913 403.736 42.0838C406.396 38.1419 409.287 34.4101 412.238 30.7472C415.23 27.1223 418.315 23.5971 421.533 20.2222C424.726 16.8128 428.077 13.5901 431.573 10.5667Z" fill="black"/>
<path d="M446.945 12.3583C449.327 17.1425 451.433 22.088 453.25 27.1658C455.097 32.2308 456.712 37.3937 458.091 42.6544C459.46 47.9206 460.527 53.2755 461.286 58.6884C462.041 64.1085 462.252 69.6029 461.914 75.0737C461.38 69.6862 460.595 64.3331 459.56 59.0362C458.509 53.7628 457.274 48.5383 455.933 43.3428C454.608 38.1401 453.106 32.9899 451.608 27.8288C450.067 22.684 448.547 17.5193 446.945 12.3583Z" fill="black"/>
<path d="M355.927 50.4351C358.582 50.4749 361.235 50.6814 363.869 51.051C366.498 51.3789 369.102 51.848 371.702 52.3462C374.295 52.8915 376.881 53.4658 379.444 54.1831C382.029 54.8643 384.576 55.7066 387.074 56.7066C384.419 56.6685 381.766 56.4638 379.13 56.0943C376.503 55.7664 373.899 55.2954 371.299 54.7936C368.708 54.2465 366.122 53.6723 363.557 52.9549C360.974 52.2738 358.425 51.4314 355.927 50.4351Z" fill="black"/>
<path d="M355.927 73.0286C355.969 75.5267 355.85 78.0212 355.69 80.5175C355.544 83.0391 355.22 85.5427 354.718 88.0082C354.471 89.3397 354.016 90.6132 353.378 91.7743C352.804 92.7236 352.244 93.8341 351.687 94.892C350.564 97.0278 349.48 99.2017 348.397 101.372C346.21 105.703 344.057 110.055 341.942 114.428C340.904 116.621 339.83 118.797 338.835 121.004C338.336 122.105 337.862 123.217 337.397 124.32C337.171 124.875 336.954 125.429 336.767 125.976C336.684 126.244 336.584 126.527 336.535 126.766C336.504 126.867 336.484 126.973 336.473 127.078C336.469 127.098 336.455 127.199 336.455 127.154C336.455 127.112 336.445 127.07 336.427 127.034C336.409 126.998 336.383 126.967 336.35 126.945L335.938 126.625C336.705 126.826 337.494 126.909 338.28 126.869C339.121 126.831 339.959 126.706 340.778 126.496C341.614 126.279 342.436 126.005 343.24 125.675C344.053 125.333 344.849 124.94 345.622 124.502L345.735 124.438L345.81 124.455C346.601 124.619 347.34 125 347.965 125.56C348.562 126.116 348.987 126.864 349.185 127.699C348.889 126.944 348.39 126.306 347.756 125.877C347.15 125.454 346.463 125.201 345.75 125.137L345.94 125.092C344.448 126.237 342.818 127.145 341.099 127.788C340.217 128.103 339.309 128.324 338.39 128.451C337.415 128.601 336.427 128.565 335.463 128.344L335.187 128.277L335.051 128.023C334.943 127.82 334.868 127.598 334.83 127.366C334.817 127.237 334.816 127.107 334.827 126.978C334.832 126.773 334.856 126.57 334.899 126.371C334.961 126.034 335.038 125.699 335.131 125.369C335.308 124.739 335.504 124.136 335.709 123.542C336.118 122.353 336.581 121.203 337.049 120.06C337.994 117.777 338.969 115.522 340.014 113.308C342.069 108.861 344.265 104.506 346.527 100.191C347.675 98.0423 348.845 95.9101 350.051 93.7906C350.666 92.7272 351.268 91.7055 352.001 90.6295C352.565 89.6839 352.992 88.644 353.265 87.5498C354.468 82.7873 355.356 77.9342 355.927 73.0286Z" fill="black"/>
<path d="M361.59 133.905C355.118 122.855 345.781 127.699 345.781 127.699C345.781 127.699 342.174 182.583 364.288 184.076C381.116 185.213 395.597 173.897 405.779 161.709C411.053 155.367 414.39 147.345 415.32 138.784C416.7 126.284 418.776 107.399 419.303 101.952C420.111 93.5895 423.172 71.6952 434.136 73.0285C434.136 73.0285 457.058 73.2821 445.193 117.181C445.193 117.181 441.957 144.657 462.991 141.371C462.991 141.371 458.676 127.634 464.339 117.181C470.003 106.729 477.449 93.5152 477.098 84.443C477.098 84.443 402.852 60.1412 394.491 61.6339C399.638 64.6429 403.777 69.3982 406.301 75.2042C408.825 81.0084 409.6 87.5571 408.516 93.8884C406.049 111.64 394.185 135.463 388.679 145.793C387.807 147.441 386.547 148.796 385.034 149.715C383.521 150.633 381.811 151.079 380.087 151.008C376.899 150.865 373.241 150.349 371.5 148.838C368.063 145.851 361.59 133.905 361.59 133.905Z" fill="black"/>
<path d="M360.797 81.2566C362.372 79.9124 364.177 78.9324 366.102 78.3744C368.06 77.7639 370.105 77.5755 372.129 77.8183C374.197 78.0918 376.163 78.9595 377.833 80.3363C379.458 81.6787 380.704 83.5047 381.429 85.6007C380.066 84.1822 378.541 82.9649 376.897 81.9776C375.319 81.0845 373.609 80.512 371.849 80.2856C370.048 80.0646 368.23 80.061 366.428 80.2747C364.586 80.4885 362.724 80.8236 360.797 81.2566Z" fill="black"/>
<path d="M424.427 111.804C428.042 113.375 432.225 113.198 434.903 110.569C436.253 109.245 437.331 107.614 438.065 105.788C438.854 103.912 439.487 101.959 439.953 99.9534C440.997 95.9118 441.613 91.7489 441.79 87.5498C441.874 85.4411 441.826 83.3307 441.648 81.2293C441.558 80.1732 441.42 79.1225 441.234 78.0827C441.149 77.5573 441.029 77.0447 440.904 76.5284C440.804 76.0067 440.612 75.5121 440.337 75.0719C441.015 75.878 441.525 76.8382 441.829 77.8852C442.191 78.9069 442.494 79.954 442.734 81.0192C443.194 83.1622 443.465 85.3488 443.544 87.548C443.688 91.9609 443.207 96.3738 442.117 100.622C441.036 104.75 439.464 109.319 435.96 112.111C434.236 113.478 432.137 114.138 430.022 113.98C428.013 113.832 426.077 113.08 424.427 111.804Z" fill="black"/>
<path d="M398.266 169.68C399.587 170.573 400.809 171.636 401.907 172.848C403.01 174.025 404.027 175.297 404.948 176.654C405.882 178.024 406.687 179.494 407.35 181.045C408.124 182.607 408.436 184.398 408.246 186.166C407.598 184.69 406.792 183.304 405.845 182.042C404.955 180.744 404.024 179.469 403.149 178.143C402.259 176.826 401.392 175.478 400.564 174.085C399.702 172.681 398.933 171.209 398.266 169.68Z" fill="black"/>
<path d="M462.992 141.371C464.42 143.818 465.722 146.354 466.89 148.966C467.481 150.215 468.065 151.448 468.723 152.622C469.372 153.859 470.165 154.995 471.081 156.004C469.655 155.783 468.341 155.022 467.365 153.85C466.365 152.765 465.534 151.506 464.903 150.124C464.268 148.782 463.779 147.36 463.447 145.889C463.084 144.418 462.93 142.894 462.992 141.371Z" fill="black"/>
<path d="M495.899 135.092C495.899 135.092 469.888 137.195 465.496 148.693L466.286 150.343L469.19 148.693C483.146 140.999 491.034 151.218 481.337 153.019C471.623 154.803 413.779 184.146 413.779 184.146C388.696 192.007 373.994 234.245 373.994 234.245C378.038 232.326 382.159 230.609 386.247 228.774C390.443 227.276 394.608 225.66 398.85 224.33C407.366 221.667 416.051 219.714 424.829 218.488C433.626 217.234 442.508 216.93 451.357 217.578C453.562 217.848 455.766 217.999 457.971 218.354C460.145 218.774 462.349 219.06 464.508 219.633C468.85 220.577 473.078 222.075 477.109 224.093C472.917 222.705 468.616 221.752 464.264 221.249C462.105 220.879 459.916 220.76 457.758 220.542C455.584 220.39 453.41 220.307 451.236 220.189C442.531 220.042 433.828 220.587 425.194 221.821L418.719 222.747L412.274 224.009L409.051 224.598L405.858 225.373C403.715 225.895 401.587 226.401 399.444 226.888C395.187 227.982 390.96 229.228 386.688 230.355C382.461 231.636 378.267 233.049 373.994 234.245C308.2 246.197 244.002 290.993 239.7 289.797C235.383 288.602 231.597 250.978 231.597 241.299C231.597 231.636 229.986 213.336 217.035 213.336C204.096 213.336 205.708 225.879 205.708 225.879C229.986 233.049 173.891 238.436 157.169 240.81C140.447 243.201 149.613 236.045 149.613 236.045C149.613 236.045 144.764 230.306 139.565 237.444C137.942 239.746 136.848 242.449 136.377 245.322C135.905 248.197 136.071 251.153 136.858 253.941C138.515 260.068 140.964 269.361 142.604 276.651C145.31 288.602 155.009 374.608 158.247 382.976C161.486 391.325 228.36 413.427 370.756 402.082C382.294 400.078 393.788 397.957 405.28 395.836C416.758 393.665 428.235 391.443 439.621 388.867C445.322 387.604 451.023 386.291 456.664 384.792C462.334 383.361 467.958 381.774 473.538 380.028C479.12 378.293 484.62 376.247 490.017 373.902C495.482 371.724 500.571 368.53 505.067 364.458C503.086 366.858 500.814 368.943 498.317 370.652C495.847 372.42 493.277 374.01 490.625 375.416C485.3 378.162 479.827 380.541 474.237 382.537C463.077 386.465 451.722 389.68 440.23 392.167C428.752 394.693 417.219 396.779 405.63 398.428C394.047 400.129 382.417 401.375 370.756 402.082C370.756 402.082 365.572 436.979 362.867 468.375H565.692C565.479 437.72 565.433 397.098 566.285 360.569C567.897 290.102 566.285 256.938 566.285 256.938C563.369 256.581 560.488 255.927 557.681 254.985C554.868 254.092 552.117 253.032 549.365 251.938C543.877 249.75 538.526 247.19 533.206 244.565C527.915 241.887 522.685 239.092 517.532 236.08C512.379 233.1 507.285 229.951 502.361 226.484C507.848 228.707 513.215 231.181 518.55 233.723C523.886 236.232 529.162 238.891 534.467 241.5L550.262 249.514C555.567 252.106 560.751 254.9 566.285 256.938C566.285 256.938 592.98 270.388 595.412 236.331C597.829 202.293 568.702 128.829 495.899 135.092ZM507.103 245.692C509.786 248.496 512.127 251.677 514.066 255.153C515.023 256.887 515.844 258.722 516.711 260.539C517.455 262.409 518.064 264.327 518.763 266.229C519.093 267.182 519.358 268.162 519.554 269.158L520.253 272.122C520.724 274.089 521.071 276.093 521.287 278.115L521.652 281.145L521.835 282.66L521.895 284.174L522.077 290.252L522.123 291.766L522.031 293.283L521.835 296.313C521.712 298.333 521.591 300.335 521.393 302.338C520.785 306.311 520.207 310.284 519.432 314.208C518.444 318.079 517.487 321.934 516.392 325.738C516.832 321.749 517.395 317.827 517.958 313.903C518.383 309.965 518.627 306.009 519.037 302.087L519.173 296.177L519.25 293.232L519.296 291.766L519.204 290.303L518.931 284.428L518.869 282.962L518.673 281.515L518.277 278.62C517.385 270.881 515.27 263.376 512.029 256.449C510.351 253.016 508.342 249.793 506.039 246.837C503.742 243.811 501.052 241.179 498.059 239.025C501.415 240.618 504.481 242.877 507.103 245.692ZM545.428 177.513C544.34 180.049 542.476 182.076 540.168 183.237C539.025 183.813 537.827 184.242 536.595 184.516C535.365 184.71 534.127 184.828 532.885 184.869C531.655 184.802 530.408 184.802 529.191 184.634L525.574 183.978C524.372 183.708 523.217 183.32 522.031 182.985L518.61 181.958C516.381 181.313 514.11 180.862 511.817 180.61C507.171 180.13 502.494 180.114 497.846 180.56C488.451 181.5 479.141 183.29 470.011 185.913C465.419 187.193 460.829 188.574 456.283 190.072C451.707 191.503 447.207 193.152 442.677 194.818C451.29 190.224 460.222 186.402 469.386 183.389C478.573 180.25 488.029 178.179 497.602 177.21C502.448 176.784 507.318 176.862 512.15 177.446C514.583 177.792 516.988 178.35 519.342 179.112L526.106 181.418L529.496 182.226C530.636 182.445 531.776 182.496 532.916 182.665C534.057 182.748 535.197 182.648 536.322 182.614C537.436 182.447 538.532 182.148 539.591 181.723C541.74 180.902 543.558 179.261 544.713 177.092C545.31 175.991 545.761 174.801 546.051 173.556C546.393 172.301 546.578 170.998 546.599 169.685C546.862 172.364 546.458 175.072 545.428 177.513Z" fill="black"/>
<path d="M277.45 468.381C307.384 467.419 337.319 466.774 367.254 466.446C382.221 466.218 397.19 466.165 412.156 466.031L457.058 465.893L501.962 466.024C516.929 466.163 531.896 466.207 546.864 466.439C576.799 466.765 606.733 467.411 636.668 468.381C606.733 469.348 576.799 469.995 546.864 470.323C531.896 470.554 516.929 470.598 501.962 470.737L457.058 470.868L412.156 470.73C397.19 470.596 382.221 470.545 367.254 470.315C337.319 469.987 307.384 469.342 277.45 468.381Z" fill="black"/>
<path d="M365.837 99.2831C371.707 99.2831 371.717 89.182 365.837 89.182C359.969 89.182 359.96 99.2831 365.837 99.2831Z" fill="black"/>
</svg>
